<svg width="136" height="44" viewBox="0 0 136 44" fill="none" xmlns="http://www.w3.org/2000/svg">
<path d="M5.51815 15.5392V20.5575H9.90893V21.1585H5.51815V32.7878C5.51815 33.7293 5.68626 34.3904 6.0225 34.7711C6.35873 35.1517 6.82352 35.342 7.41687 35.342C8.01022 35.342 8.52445 35.1016 8.95957 34.6208C9.3947 34.12 9.77049 33.2886 10.0869 32.1267L10.6803 32.2769C10.4825 33.4389 10.0869 34.4205 9.49359 35.2218C8.92002 36.0231 8.02999 36.4238 6.82352 36.4238C6.15105 36.4238 5.59726 36.3337 5.16214 36.1534C4.72702 35.9931 4.34134 35.7527 4.00511 35.4322C3.56998 34.9714 3.26342 34.4205 3.08542 33.7794C2.92719 33.1384 2.84808 32.2869 2.84808 31.2252V21.1585H0V20.5575H2.84808V15.9599C3.34253 15.9398 3.81721 15.8998 4.27211 15.8397C4.72702 15.7796 5.14236 15.6794 5.51815 15.5392Z" fill="#63612A"/>
<path d="M13.2463 13.015C13.7605 13.015 14.2055 13.2053 14.5813 13.5859C14.9571 13.9666 15.145 14.4173 15.145 14.9382C15.145 15.459 14.9571 15.9098 14.5813 16.2904C14.2055 16.671 13.7605 16.8614 13.2463 16.8614C12.7321 16.8614 12.287 16.671 11.9113 16.2904C11.5355 15.9098 11.3476 15.459 11.3476 14.9382C11.3476 14.4173 11.5355 13.9666 11.9113 13.5859C12.287 13.2053 12.7321 13.015 13.2463 13.015ZM14.789 20.1969V33.2085C14.789 34.0499 14.9571 34.6208 15.2933 34.9213C15.6494 35.2218 16.2328 35.3721 17.0437 35.3721V36.0031C16.7075 35.9831 16.1933 35.9631 15.501 35.943C14.8286 35.903 14.1462 35.8829 13.454 35.8829C12.7815 35.8829 12.0991 35.903 11.4069 35.943C10.7147 35.9631 10.2004 35.9831 9.8642 36.0031V35.3721C10.6751 35.3721 11.2487 35.2218 11.5849 34.9213C11.9409 34.6208 12.1189 34.0499 12.1189 33.2085V28.5057V23.8029C12.1189 22.9014 11.9607 22.2403 11.6442 21.8196C11.3278 21.3789 10.7344 21.1585 9.8642 21.1585V20.5274C10.4971 20.5875 11.1102 20.6176 11.7036 20.6176C12.2772 20.6176 12.8211 20.5875 13.3353 20.5274C13.8693 20.4473 14.3539 20.3371 14.789 20.1969Z" fill="#63612A"/>
<path d="M21.8786 20.1969V38.6475C21.8786 39.5089 22.1258 40.0799 22.6203 40.3603C23.1345 40.6608 23.8367 40.8111 24.7267 40.8111V41.4421C24.2916 41.4221 23.6883 41.3921 22.917 41.352C22.1456 41.332 21.3248 41.3219 20.4546 41.3219C19.8414 41.3219 19.2283 41.332 18.6152 41.352C18.0218 41.3921 17.5669 41.4221 17.2505 41.4421V40.8111C17.9625 40.8111 18.4668 40.6809 18.7635 40.4204C19.0602 40.16 19.2085 39.6692 19.2085 38.948V23.8029C19.2085 22.9014 19.0503 22.2403 18.7338 21.8196C18.4174 21.3789 17.824 21.1585 16.9538 21.1585V20.5274C17.5867 20.5875 18.1998 20.6176 18.7932 20.6176C19.3668 20.6176 19.9107 20.5875 20.4249 20.5274C20.9589 20.4473 21.4435 20.3371 21.8786 20.1969ZM26.6254 20.1067C27.6736 20.1067 28.6131 20.3972 29.4438 20.9782C30.2745 21.5391 30.9272 22.3705 31.4019 23.4723C31.8963 24.5742 32.1435 25.9364 32.1435 27.5591C32.1435 28.6409 32.015 29.7127 31.7579 30.7744C31.5007 31.8162 31.0953 32.7677 30.5415 33.6292C30.0075 34.4706 29.3054 35.1517 28.4351 35.6726C27.5846 36.1734 26.5562 36.4238 25.3497 36.4238C24.4201 36.4238 23.6092 36.2034 22.917 35.7627C22.2445 35.322 21.7896 34.7911 21.5523 34.1701L21.8489 33.7494C22.1258 34.3103 22.5214 34.7811 23.0356 35.1617C23.5696 35.5423 24.2322 35.7327 25.0233 35.7327C26.1309 35.7327 26.9913 35.3821 27.6044 34.6809C28.2175 33.9798 28.6428 33.0482 28.8801 31.8863C29.1372 30.7043 29.2658 29.4022 29.2658 27.9798C29.2658 26.3771 29.1372 25.065 28.8801 24.0433C28.623 23.0216 28.2373 22.2603 27.7231 21.7595C27.2089 21.2587 26.5759 21.0082 25.8244 21.0082C24.8552 21.0082 23.9751 21.4189 23.184 22.2403C22.3928 23.0416 21.8885 24.2636 21.6709 25.9064L21.3149 25.4857C21.5325 23.7828 22.1258 22.4606 23.095 21.5191C24.0839 20.5775 25.2607 20.1067 26.6254 20.1067Z" fill="#63612A"/>
<path d="M38.316 20.1067C39.1071 20.1067 39.7796 20.237 40.3334 20.4974C40.8872 20.7578 41.2926 20.9982 41.5497 21.2186C42.2024 21.7595 42.598 21.3989 42.7364 20.1368H43.4188C43.3792 20.6977 43.3496 21.3688 43.3298 22.1501C43.31 22.9114 43.3001 23.9431 43.3001 25.2453H42.6178C42.4991 24.504 42.2914 23.7828 41.9948 23.0817C41.7179 22.3805 41.3025 21.8096 40.7487 21.3688C40.1949 20.9081 39.473 20.6777 38.583 20.6777C37.8908 20.6777 37.3073 20.878 36.8326 21.2787C36.3777 21.6593 36.1503 22.2303 36.1503 22.9915C36.1503 23.5925 36.3283 24.1134 36.6843 24.5541C37.0403 24.9748 37.5051 25.3755 38.0787 25.7561C38.6522 26.1167 39.2752 26.5174 39.9477 26.9581C40.6993 27.4389 41.3816 27.9297 41.9948 28.4306C42.6079 28.9314 43.0925 29.4823 43.4485 30.0833C43.8243 30.6843 44.0121 31.3955 44.0121 32.2168C44.0121 33.1384 43.7748 33.9096 43.3001 34.5307C42.8254 35.1517 42.2024 35.6225 41.4311 35.943C40.6795 36.2635 39.8488 36.4238 38.939 36.4238C38.5039 36.4238 38.0885 36.3837 37.693 36.3036C37.3172 36.2435 36.9513 36.1433 36.5953 36.0031C36.3975 35.9029 36.1898 35.7827 35.9723 35.6425C35.7745 35.5023 35.5767 35.352 35.3789 35.1918C35.1811 35.0315 35.0031 35.0415 34.8449 35.2218C34.6867 35.3821 34.568 35.7126 34.4889 36.2135H33.8065C33.8461 35.5724 33.8758 34.7911 33.8955 33.8696C33.9153 32.948 33.9252 31.726 33.9252 30.2035H34.6076C34.746 31.3254 34.9438 32.307 35.2009 33.1484C35.458 33.9898 35.8635 34.6509 36.4173 35.1317C36.9711 35.5924 37.7424 35.8228 38.7313 35.8228C39.1269 35.8228 39.5225 35.7327 39.918 35.5524C40.3334 35.3721 40.6795 35.0716 40.9564 34.6509C41.2333 34.2302 41.3717 33.6692 41.3717 32.9681C41.3717 32.0866 41.0553 31.3654 40.4224 30.8045C39.7895 30.2436 38.9885 29.6526 38.0193 29.0316C37.3073 28.5708 36.6348 28.11 36.0019 27.6493C35.3888 27.1885 34.8845 26.6676 34.4889 26.0867C34.1131 25.5057 33.9252 24.8045 33.9252 23.9832C33.9252 23.0817 34.123 22.3505 34.5186 21.7895C34.9339 21.2086 35.4778 20.7879 36.1503 20.5274C36.8227 20.247 37.5446 20.1067 38.316 20.1067Z" fill="#63612A"/>
<path d="M58.6758 20.5274V21.1284C58.3 21.1685 57.9538 21.3388 57.6374 21.6393C57.3209 21.9398 57.0243 22.4707 56.7474 23.2319L51.8819 36.1534H51.3776L45.9187 22.8413C45.543 22.06 45.1672 21.5892 44.7914 21.4289C44.4354 21.2486 44.1387 21.1585 43.9014 21.1585V20.5274C44.3365 20.5875 44.7914 20.6376 45.2661 20.6777C45.7407 20.6977 46.255 20.7077 46.8088 20.7077C47.4219 20.7077 48.0647 20.6877 48.7372 20.6476C49.4294 20.6076 50.0722 20.5675 50.6655 20.5274V21.1585C50.1711 21.1585 49.7261 21.1986 49.3305 21.2787C48.9547 21.3388 48.7174 21.5491 48.6185 21.9097C48.5196 22.2503 48.6383 22.8413 48.9745 23.6827L52.6236 32.8479L52.4456 32.908L55.8277 23.9531C56.0848 23.292 56.1837 22.7712 56.1244 22.3905C56.0848 21.9899 55.887 21.6894 55.531 21.489C55.175 21.2887 54.641 21.1685 53.929 21.1284V20.5274C54.285 20.5475 54.5915 20.5675 54.8487 20.5875C55.1058 20.5875 55.353 20.5976 55.5903 20.6176C55.8475 20.6176 56.1244 20.6176 56.421 20.6176C56.8759 20.6176 57.2814 20.6076 57.6374 20.5875C58.0132 20.5675 58.3593 20.5475 58.6758 20.5274ZM51.8819 36.1534L50.8732 38.7677C50.6754 39.2685 50.4678 39.6892 50.2502 40.0298C50.0524 40.3704 49.8349 40.6508 49.5975 40.8712C49.2811 41.1717 48.9053 41.372 48.4701 41.4722C48.035 41.5924 47.6395 41.6525 47.2835 41.6525C46.9077 41.6525 46.5615 41.5824 46.2451 41.4421C45.9484 41.3019 45.7111 41.0916 45.5331 40.8111C45.3551 40.5507 45.2661 40.2301 45.2661 39.8495C45.2661 39.3687 45.4045 38.9781 45.6814 38.6776C45.9583 38.3971 46.344 38.2569 46.8384 38.2569C47.2538 38.2569 47.6098 38.3771 47.9065 38.6175C48.2031 38.8578 48.3515 39.2084 48.3515 39.6692C48.3515 40.0098 48.2724 40.2902 48.1141 40.5106C47.9559 40.731 47.768 40.9012 47.5505 41.0214C47.59 41.0415 47.6197 41.0515 47.6395 41.0515C47.679 41.0515 47.7087 41.0515 47.7285 41.0515C48.2625 41.0515 48.7372 40.8612 49.1525 40.4805C49.5678 40.1199 49.9337 39.529 50.2502 38.7076L51.3182 35.913L51.8819 36.1534Z" fill="#63612A"/>
<path d="M81.0862 15.5392V20.5575H85.477V21.1585H81.0862V32.7878C81.0862 33.7293 81.2543 34.3904 81.5906 34.7711C81.9268 35.1517 82.3916 35.342 82.9849 35.342C83.5783 35.342 84.0925 35.1016 84.5276 34.6208C84.9628 34.12 85.3385 33.2886 85.655 32.1267L86.2484 32.2769C86.0506 33.4389 85.655 34.4205 85.0617 35.2218C84.4881 36.0231 83.5981 36.4238 82.3916 36.4238C81.7191 36.4238 81.1653 36.3337 80.7302 36.1534C80.2951 35.9931 79.9094 35.7527 79.5732 35.4322C79.1381 34.9714 78.8315 34.4205 78.6535 33.7794C78.4953 33.1384 78.4161 32.2869 78.4161 31.2252V21.1585H75.5681V20.5575H78.4161V15.9599C78.9106 15.9398 79.3853 15.8998 79.8402 15.8397C80.2951 15.7796 80.7104 15.6794 81.0862 15.5392Z" fill="#63612A"/>
<path d="M94.6299 20.1067C95.1639 20.1067 95.6287 20.2169 96.0242 20.4373C96.4396 20.6577 96.7561 20.9481 96.9736 21.3087C97.211 21.6493 97.3296 22.04 97.3296 22.4807C97.3296 22.9815 97.1714 23.4222 96.8549 23.8029C96.5583 24.1835 96.1528 24.3738 95.6386 24.3738C95.2232 24.3738 94.8573 24.2436 94.5409 23.9832C94.2244 23.7027 94.0662 23.3121 94.0662 22.8112C94.0662 22.4306 94.1651 22.1101 94.3629 21.8496C94.5804 21.5692 94.8178 21.3488 95.0749 21.1885C94.9364 20.9882 94.7288 20.888 94.4519 20.888C93.8388 20.888 93.2751 21.0784 92.7608 21.459C92.2466 21.8196 91.8115 22.2904 91.4555 22.8713C91.0994 23.4523 90.8226 24.0733 90.6248 24.7344C90.427 25.3755 90.3281 25.9765 90.3281 26.5374V32.908C90.3281 33.8896 90.605 34.5507 91.1588 34.8913C91.7324 35.2118 92.5037 35.3721 93.4729 35.3721V36.0031C93.018 35.9831 92.3752 35.9631 91.5445 35.943C90.7138 35.903 89.8336 35.8829 88.9041 35.8829C88.2316 35.8829 87.5591 35.903 86.8867 35.943C86.234 35.9631 85.7395 35.9831 85.4033 36.0031V35.3721C86.2142 35.3721 86.7878 35.2218 87.124 34.9213C87.48 34.6208 87.658 34.0499 87.658 33.2085V23.8029C87.658 22.9014 87.4998 22.2403 87.1833 21.8196C86.8669 21.3789 86.2735 21.1585 85.4033 21.1585V20.5274C86.0362 20.5875 86.6493 20.6176 87.2427 20.6176C87.8162 20.6176 88.3602 20.5875 88.8744 20.5274C89.4084 20.4473 89.893 20.3371 90.3281 20.1969V23.9531C90.5457 23.3722 90.8522 22.7912 91.2478 22.2102C91.6631 21.6092 92.1576 21.1084 92.7312 20.7077C93.3047 20.3071 93.9376 20.1067 94.6299 20.1067Z" fill="#63612A"/>
<path d="M101.433 36.2135C100.622 36.2135 99.92 36.0632 99.3266 35.7627C98.7333 35.4422 98.2784 35.0015 97.9619 34.4405C97.6652 33.8796 97.5169 33.2285 97.5169 32.4873C97.5169 31.6058 97.7147 30.8846 98.1102 30.3237C98.5256 29.7628 99.0497 29.312 99.6826 28.9714C100.316 28.6309 100.978 28.3504 101.67 28.1301C102.382 27.8897 103.055 27.6693 103.688 27.469C104.321 27.2486 104.835 26.9982 105.23 26.7177C105.646 26.4372 105.853 26.0666 105.853 25.6059V23.7428C105.853 22.9014 105.725 22.2603 105.468 21.8196C105.23 21.3789 104.904 21.0884 104.489 20.9481C104.073 20.7879 103.609 20.7077 103.094 20.7077C102.6 20.7077 102.066 20.7779 101.492 20.9181C100.939 21.0583 100.494 21.3488 100.157 21.7895C100.533 21.8697 100.859 22.07 101.136 22.3905C101.413 22.7111 101.552 23.1217 101.552 23.6226C101.552 24.1234 101.393 24.5241 101.077 24.8246C100.761 25.105 100.355 25.2453 99.8606 25.2453C99.287 25.2453 98.8618 25.065 98.5849 24.7044C98.3278 24.3237 98.1992 23.903 98.1992 23.4423C98.1992 22.9214 98.3278 22.5007 98.5849 22.1802C98.842 21.8597 99.1684 21.5592 99.5639 21.2787C100.019 20.9582 100.602 20.6877 101.314 20.4673C102.046 20.2269 102.867 20.1067 103.777 20.1067C104.588 20.1067 105.28 20.2069 105.853 20.4072C106.427 20.5875 106.902 20.858 107.277 21.2186C107.792 21.6994 108.128 22.2904 108.286 22.9915C108.444 23.6727 108.524 24.494 108.524 25.4556V33.8095C108.524 34.3103 108.593 34.6709 108.731 34.8913C108.889 35.1116 109.127 35.2218 109.443 35.2218C109.661 35.2218 109.868 35.1717 110.066 35.0716C110.264 34.9714 110.501 34.8111 110.778 34.5908L111.105 35.1016C110.689 35.4222 110.294 35.6926 109.918 35.913C109.542 36.1133 109.038 36.2135 108.405 36.2135C107.831 36.2135 107.357 36.1133 106.981 35.913C106.605 35.7126 106.318 35.4221 106.12 35.0415C105.942 34.6409 105.853 34.14 105.853 33.539C105.319 34.4405 104.677 35.1116 103.925 35.5524C103.193 35.9931 102.363 36.2135 101.433 36.2135ZM102.501 35.0115C103.154 35.0115 103.757 34.8212 104.311 34.4405C104.884 34.0599 105.399 33.4889 105.853 32.7277V26.8379C105.616 27.1785 105.27 27.469 104.815 27.7094C104.36 27.9297 103.866 28.1601 103.332 28.4005C102.798 28.6209 102.283 28.8913 101.789 29.2118C101.314 29.5123 100.919 29.913 100.602 30.4138C100.286 30.9147 100.128 31.5658 100.128 32.3671C100.128 33.1684 100.335 33.8095 100.751 34.2903C101.186 34.7711 101.769 35.0115 102.501 35.0115Z" fill="#63612A"/>
<path d="M113.984 13.015C114.498 13.015 114.943 13.2053 115.319 13.5859C115.695 13.9666 115.882 14.4173 115.882 14.9382C115.882 15.459 115.695 15.9098 115.319 16.2904C114.943 16.671 114.498 16.8614 113.984 16.8614C113.469 16.8614 113.024 16.671 112.649 16.2904C112.273 15.9098 112.085 15.459 112.085 14.9382C112.085 14.4173 112.273 13.9666 112.649 13.5859C113.024 13.2053 113.469 13.015 113.984 13.015ZM115.526 20.1969V33.2085C115.526 34.0499 115.695 34.6208 116.031 34.9213C116.387 35.2218 116.97 35.3721 117.781 35.3721V36.0031C117.445 35.9831 116.931 35.9631 116.238 35.943C115.566 35.903 114.884 35.8829 114.191 35.8829C113.519 35.8829 112.837 35.903 112.144 35.943C111.452 35.9631 110.938 35.9831 110.602 36.0031V35.3721C111.413 35.3721 111.986 35.2218 112.322 34.9213C112.678 34.6208 112.856 34.0499 112.856 33.2085V23.8029C112.856 22.9014 112.698 22.2403 112.382 21.8196C112.065 21.3789 111.472 21.1585 110.602 21.1585V20.5274C111.235 20.5875 111.848 20.6176 112.441 20.6176C113.015 20.6176 113.558 20.5875 114.073 20.5274C114.607 20.4473 115.091 20.3371 115.526 20.1969Z" fill="#63612A"/>
<path d="M122.616 12.444V33.2085C122.616 34.0499 122.784 34.6208 123.12 34.9213C123.476 35.2218 124.06 35.3721 124.871 35.3721V36.0031C124.535 35.9831 124.02 35.9631 123.328 35.943C122.656 35.903 121.973 35.8829 121.281 35.8829C120.609 35.8829 119.926 35.903 119.234 35.943C118.542 35.9631 118.027 35.9831 117.691 36.0031V35.3721C118.502 35.3721 119.076 35.2218 119.412 34.9213C119.768 34.6208 119.946 34.0499 119.946 33.2085V16.05C119.946 15.1485 119.788 14.4874 119.471 14.0667C119.155 13.626 118.561 13.4056 117.691 13.4056V12.7746C118.324 12.8347 118.937 12.8647 119.531 12.8647C120.104 12.8647 120.648 12.8347 121.162 12.7746C121.696 12.6945 122.181 12.5843 122.616 12.444Z" fill="#63612A"/>
<path d="M130.304 20.1067C131.095 20.1067 131.767 20.237 132.321 20.4974C132.875 20.7578 133.28 20.9982 133.538 21.2186C134.19 21.7595 134.586 21.3989 134.724 20.1368H135.407C135.367 20.6977 135.337 21.3688 135.318 22.1501C135.298 22.9114 135.288 23.9431 135.288 25.2453H134.606C134.487 24.504 134.279 23.7828 133.983 23.0817C133.706 22.3805 133.29 21.8096 132.737 21.3688C132.183 20.9081 131.461 20.6777 130.571 20.6777C129.879 20.6777 129.295 20.878 128.82 21.2787C128.366 21.6593 128.138 22.2303 128.138 22.9915C128.138 23.5925 128.316 24.1134 128.672 24.5541C129.028 24.9748 129.493 25.3755 130.066 25.7561C130.64 26.1167 131.263 26.5174 131.936 26.9581C132.687 27.4389 133.369 27.9297 133.983 28.4306C134.596 28.9314 135.08 29.4823 135.436 30.0833C135.812 30.6843 136 31.3955 136 32.2168C136 33.1384 135.763 33.9096 135.288 34.5307C134.813 35.1517 134.19 35.6225 133.419 35.943C132.667 36.2635 131.837 36.4238 130.927 36.4238C130.492 36.4238 130.076 36.3837 129.681 36.3036C129.305 36.2435 128.939 36.1433 128.583 36.0031C128.385 35.9029 128.178 35.7827 127.96 35.6425C127.762 35.5023 127.565 35.352 127.367 35.1918C127.169 35.0315 126.991 35.0415 126.833 35.2218C126.675 35.3821 126.556 35.7126 126.477 36.2135H125.794C125.834 35.5724 125.864 34.7911 125.883 33.8696C125.903 32.948 125.913 31.726 125.913 30.2035H126.595C126.734 31.3254 126.932 32.307 127.189 33.1484C127.446 33.9898 127.851 34.6509 128.405 35.1317C128.959 35.5924 129.73 35.8228 130.719 35.8228C131.115 35.8228 131.51 35.7327 131.906 35.5524C132.321 35.3721 132.667 35.0716 132.944 34.6509C133.221 34.2302 133.36 33.6692 133.36 32.9681C133.36 32.0866 133.043 31.3654 132.41 30.8045C131.777 30.2436 130.976 29.6526 130.007 29.0316C129.295 28.5708 128.623 28.11 127.99 27.6493C127.377 27.1885 126.872 26.6676 126.477 26.0867C126.101 25.5057 125.913 24.8045 125.913 23.9832C125.913 23.0817 126.111 22.3505 126.506 21.7895C126.922 21.2086 127.466 20.7879 128.138 20.5274C128.811 20.247 129.532 20.1067 130.304 20.1067Z" fill="#63612A"/>
<path d="M100.221 39.6112H101.168L102.437 42.7485H102.487L103.756 39.6112H104.704V43.9408H103.961V40.9663H103.921L102.74 43.9281H102.185L101.003 40.9599H100.964V43.9408H100.221V39.6112Z" fill="#63612A"/>
<path d="M109.426 41.776C109.426 42.2425 109.339 42.6421 109.167 42.9747C108.996 43.3059 108.762 43.5596 108.465 43.7357C108.17 43.9119 107.836 44 107.462 44C107.087 44 106.752 43.9119 106.455 43.7357C106.16 43.5582 105.927 43.3038 105.754 42.9726C105.583 42.6399 105.497 42.2411 105.497 41.776C105.497 41.3095 105.583 40.9106 105.754 40.5794C105.927 40.2468 106.16 39.9924 106.455 39.8162C106.752 39.64 107.087 39.552 107.462 39.552C107.836 39.552 108.17 39.64 108.465 39.8162C108.762 39.9924 108.996 40.2468 109.167 40.5794C109.339 40.9106 109.426 41.3095 109.426 41.776ZM108.647 41.776C108.647 41.4476 108.596 41.1706 108.495 40.9451C108.394 40.7182 108.255 40.547 108.077 40.4314C107.899 40.3144 107.694 40.256 107.462 40.256C107.229 40.256 107.024 40.3144 106.846 40.4314C106.668 40.547 106.528 40.7182 106.426 40.9451C106.326 41.1706 106.276 41.4476 106.276 41.776C106.276 42.1044 106.326 42.382 106.426 42.6089C106.528 42.8344 106.668 43.0057 106.846 43.1227C107.024 43.2382 107.229 43.296 107.462 43.296C107.694 43.296 107.899 43.2382 108.077 43.1227C108.255 43.0057 108.394 42.8344 108.495 42.6089C108.596 42.382 108.647 42.1044 108.647 41.776Z" fill="#63612A"/>
<path d="M110.216 43.9408V39.6112H111.853C112.162 39.6112 112.418 39.6605 112.623 39.7591C112.829 39.8564 112.983 39.9896 113.084 40.1587C113.187 40.3278 113.239 40.5195 113.239 40.7337C113.239 40.9099 113.205 41.0607 113.138 41.1862C113.072 41.3102 112.982 41.4109 112.869 41.4885C112.757 41.566 112.631 41.6217 112.491 41.6555V41.6978C112.643 41.7062 112.789 41.7534 112.928 41.8394C113.068 41.924 113.183 42.0438 113.272 42.1988C113.361 42.3538 113.406 42.5413 113.406 42.7611C113.406 42.9852 113.352 43.1868 113.245 43.3658C113.138 43.5434 112.976 43.6836 112.761 43.7865C112.545 43.8894 112.274 43.9408 111.947 43.9408H110.216ZM110.991 43.2854H111.824C112.105 43.2854 112.307 43.2312 112.431 43.1227C112.556 43.0127 112.619 42.8718 112.619 42.6998C112.619 42.5716 112.587 42.456 112.525 42.3531C112.462 42.2488 112.373 42.1671 112.258 42.1079C112.142 42.0473 112.004 42.017 111.844 42.017H110.991V43.2854ZM110.991 41.4525H111.757C111.89 41.4525 112.011 41.4279 112.118 41.3785C112.225 41.3278 112.309 41.2566 112.37 41.165C112.433 41.072 112.464 40.9621 112.464 40.8352C112.464 40.6675 112.406 40.5294 112.289 40.4209C112.173 40.3123 112.002 40.2581 111.773 40.2581H110.991V41.4525Z" fill="#63612A"/>
<path d="M114.912 39.6112V43.9408H114.138V39.6112H114.912Z" fill="#63612A"/>
<path d="M115.81 43.9408V39.6112H116.584V43.2833H118.467V43.9408H115.81Z" fill="#63612A"/>
<path d="M119.198 43.9408V39.6112H121.978V40.2686H119.972V41.4441H121.834V42.1015H119.972V43.2833H121.994V43.9408H119.198Z" fill="#63612A"/>
<path d="M124.343 43.9408V39.6112H125.979C126.288 39.6112 126.545 39.6605 126.75 39.7591C126.956 39.8564 127.109 39.9896 127.211 40.1587C127.314 40.3278 127.365 40.5195 127.365 40.7337C127.365 40.9099 127.332 41.0607 127.265 41.1862C127.198 41.3102 127.109 41.4109 126.996 41.4885C126.883 41.566 126.757 41.6217 126.618 41.6555V41.6978C126.77 41.7062 126.915 41.7534 127.054 41.8394C127.195 41.924 127.31 42.0438 127.399 42.1988C127.488 42.3538 127.532 42.5413 127.532 42.7611C127.532 42.9852 127.479 43.1868 127.372 43.3658C127.264 43.5434 127.103 43.6836 126.887 43.7865C126.672 43.8894 126.4 43.9408 126.073 43.9408H124.343ZM125.117 43.2854H125.95C126.231 43.2854 126.434 43.2312 126.558 43.1227C126.683 43.0127 126.745 42.8718 126.745 42.6998C126.745 42.5716 126.714 42.456 126.652 42.3531C126.589 42.2488 126.5 42.1671 126.384 42.1079C126.269 42.0473 126.131 42.017 125.971 42.017H125.117V43.2854ZM125.117 41.4525H125.883C126.017 41.4525 126.137 41.4279 126.245 41.3785C126.352 41.3278 126.436 41.2566 126.497 41.165C126.56 41.072 126.591 40.9621 126.591 40.8352C126.591 40.6675 126.533 40.5294 126.416 40.4209C126.3 40.3123 126.128 40.2581 125.9 40.2581H125.117V41.4525Z" fill="#63612A"/>
<path d="M128.814 43.9408H127.987L129.492 39.6112H130.448L131.955 43.9408H131.128L129.987 40.4991H129.953L128.814 43.9408ZM128.841 42.2432H131.095V42.8732H128.841V42.2432Z" fill="#63612A"/>
<path d="M132.577 43.9408V39.6112H134.18C134.508 39.6112 134.784 39.6689 135.006 39.7845C135.23 39.9001 135.399 40.0622 135.513 40.2707C135.629 40.4779 135.687 40.7196 135.687 40.9959C135.687 41.2735 135.628 41.5145 135.511 41.7189C135.396 41.9219 135.225 42.079 135 42.1903C134.774 42.3003 134.498 42.3552 134.169 42.3552H133.028V41.7041H134.065C134.257 41.7041 134.414 41.6773 134.537 41.6238C134.659 41.5688 134.749 41.4892 134.808 41.3849C134.868 41.2792 134.898 41.1495 134.898 40.9959C134.898 40.8423 134.868 40.7112 134.808 40.6027C134.748 40.4927 134.657 40.4096 134.534 40.3532C134.412 40.2954 134.254 40.2665 134.061 40.2665H133.351V43.9408H132.577ZM134.785 41.9789L135.843 43.9408H134.979L133.94 41.9789H134.785Z" fill="#63612A"/>
<path d="M63.4058 35.3696C63.403 35.3068 63.4106 35.2449 63.4263 35.1833C63.4446 35.1227 63.4745 35.0644 63.5148 35.0092C63.5964 34.9004 63.7205 34.8156 63.8588 34.7467C63.7045 34.7496 63.546 34.7984 63.4093 34.9017C63.3438 34.9563 63.2871 35.0245 63.2427 35.103C63.2004 35.1827 63.1781 35.2723 63.1674 35.3619C63.1519 35.5431 63.1979 35.7226 63.2779 35.8738C63.3576 36.0269 63.4666 36.1583 63.5882 36.2692C63.8327 36.4925 64.1269 36.636 64.4281 36.7237C64.7302 36.8098 65.0417 36.8443 65.3489 36.8187C64.8196 36.6325 64.217 36.4268 63.7936 36.039C63.5908 35.8546 63.4263 35.6218 63.4058 35.3696Z" fill="#63612A"/>
<path d="M65.2039 35.1119C65.162 34.8877 65.5908 34.7002 65.8157 34.5956C63.9473 34.7107 65.2402 36.4724 67.7779 35.6502C67.9553 35.5925 68.1285 35.5099 68.2709 35.389C67.9506 35.4991 67.5489 35.5306 67.2131 35.5399C66.7264 35.5479 65.4805 35.4994 65.2039 35.1119Z" fill="#63612A"/>
<path d="M69.3621 12.0859C69.089 11.9456 68.8124 11.5048 68.9728 11.2153C69.0118 11.1441 69.078 11.1072 69.1671 11.1011C68.9709 11.2743 69.0307 11.5629 69.1829 11.7782C69.1284 10.6584 69.7424 11.5823 69.7395 11.7664C69.7348 12.0716 69.5735 12.194 69.3621 12.0859ZM69.9093 12.0419C69.9859 11.8448 69.9496 11.5836 69.8394 11.3601C69.7023 11.08 69.45 10.859 69.1593 10.8941C68.5894 10.9624 68.6461 11.6573 68.941 11.9861C69.0307 12.0869 69.1334 12.2007 69.2698 12.2709C69.5206 12.3994 69.8044 12.3133 69.9093 12.0419Z" fill="#63612A"/>
<path d="M78.4229 1.03568C78.2251 1.03568 78.0644 0.873034 78.0644 0.67339C78.0644 0.473428 78.2251 0.310779 78.4229 0.310779C78.6201 0.310779 78.7808 0.473428 78.7808 0.67339C78.7808 0.873034 78.6201 1.03568 78.4229 1.03568ZM77.9271 5.15165C77.7012 5.55349 75.5616 5.86476 75.1099 5.92599C75.0289 5.76717 74.9202 5.6211 74.792 5.49322L75.6407 4.42356C75.9982 4.48416 77.7948 4.81073 77.9271 5.15165ZM69.3609 16.3307C69.2112 16.5029 69.0572 16.6701 68.8946 16.8279C65.6657 19.9846 63.7675 15.0857 56.369 5.94289C56.7738 6.06727 57.2054 6.16008 57.6237 6.23726C57.2136 6.49973 57.1749 6.82917 57.597 7.15064C57.8918 7.3691 58.2683 7.50847 58.6104 7.62232C65.3268 17.3063 66.5358 19.7639 69.6737 15.1013C66.9995 18.036 66.3109 18.9242 59.3702 7.84078C59.5589 7.88734 59.7488 7.93008 59.9391 7.96899C60.9786 9.64236 62.7163 12.1417 64.0119 13.6709C63.438 12.6555 62.8092 11.7243 62.3849 11.081C61.6131 9.95649 61.0596 9.156 60.1813 8.01682C62.1196 8.38454 64.1984 8.51402 66.1701 8.54145C67.4163 8.54974 68.6637 8.51657 69.9074 8.42281C68.4675 9.30622 67.2698 11.3703 68.8313 12.5251C68.8499 12.5385 68.8685 12.5496 68.8871 12.5621C66.7469 15.4476 66.9942 15.07 66.9413 15.3019L69.084 12.6855C69.9326 13.1591 70.7712 12.8711 71.5178 12.2164C72.2685 11.5584 73.0365 10.5551 72.7489 9.51C73.2327 9.42166 73.68 9.17737 74.0593 8.85622C74.1384 8.78893 74.2206 8.71494 74.3031 8.63553L70.3563 14.1369L76.7426 6.0829C76.8863 6.04846 76.9795 6.02932 77.2403 5.95023C75.4362 8.15109 71.4368 13.0204 69.3609 16.3307ZM67.2109 25.189C67.2144 27.232 67.227 30.2426 67.5558 32.1399C67.839 33.5077 68.0126 34.3863 68.918 34.8855C68.975 34.9355 69.1139 35.0382 69.204 35.1575C69.3004 35.2847 69.2976 35.3597 69.1933 35.4946C68.7466 36.0827 67.5294 36.2074 66.7705 36.1978V36.1965C66.7488 36.1968 66.6659 36.1968 66.6527 36.1965C65.8957 36.2026 64.6766 36.0699 64.2391 35.4873C64.1386 35.3568 64.1373 35.2876 64.2306 35.1661C64.6486 34.616 65.8028 35.0054 66.149 29.8252C66.7359 21.0383 65.5344 18.5105 64.5238 16.864C65.9738 18.4621 67.2304 18.6129 68.8216 17.3819C67.0452 20.5561 67.21 24.9824 67.2109 25.189ZM73.2286 36.5792C71.8533 37.6671 68.7 37.9522 66.8732 37.957C59.4524 37.9423 57.4124 34.8673 64.8533 34.1098C64.3984 34.7563 63.8324 34.8727 63.8415 35.3323C63.8431 35.4589 63.9108 35.5813 63.9858 35.6828C64.1234 35.8626 64.2973 35.9854 64.4756 36.0859C66.212 37.0302 70.075 36.3554 69.5533 35.1208C69.4872 34.9658 69.3624 34.8379 69.2352 34.7276C69.0982 34.6115 69.0739 34.593 69.0213 34.5433C68.8001 34.3417 68.6864 34.2451 68.5768 34.0862C71.2878 34.2955 74.9725 35.2586 73.2286 36.5792ZM73.4302 37.0327C70.89 39.4224 60.4658 38.8889 60.0361 36.4801C61.9615 38.9986 71.015 38.8869 73.4186 36.8274C73.4992 36.7639 73.5777 36.694 73.6504 36.6156C73.6022 36.7298 73.5295 36.945 73.4302 37.0327ZM58.3996 7.32573C57.6792 7.09483 57.0677 6.76858 57.6751 6.30774C57.8502 6.55203 58.0985 6.90061 58.3996 7.32573ZM71.761 6.23598C72.0294 5.87688 74.047 4.71537 74.7687 5.97192C73.7827 6.0947 72.7504 6.1757 71.761 6.23598ZM74.1252 7.59139C73.1571 7.78401 72.0832 7.89946 71.0947 7.97537C71.0957 7.75691 71.1347 7.53813 71.199 7.32668C72.0675 7.26162 72.6443 7.23069 74.0581 6.98544C74.5095 6.88817 74.6764 6.85979 74.9779 6.77814C74.9644 7.04412 74.8569 7.24791 74.724 7.45585C74.5259 7.50719 74.3258 7.55152 74.1252 7.59139ZM72.6292 8.10708C72.7013 8.09496 72.7737 8.08316 72.8462 8.0704C72.9259 8.09177 72.9574 8.11601 73.0103 8.17118C72.8875 8.12972 72.7592 8.10772 72.6292 8.10708ZM72.2785 8.53539C72.23 8.44386 72.2785 8.29907 72.539 8.35042C72.6959 8.38103 72.867 8.43557 73.0267 8.51275C72.8875 8.66391 72.5904 8.75895 72.346 8.72228C72.214 8.70282 72.0416 8.6368 71.9727 8.43684C71.9519 8.37625 71.9393 8.28504 72.0678 8.19287C72.1673 8.17852 72.2663 8.16417 72.3658 8.14886C72.1333 8.25027 72.1639 8.50222 72.2785 8.53539ZM71.4274 11.906C69.3829 13.7032 67.427 11.8531 68.8717 9.76163C69.2944 9.14931 69.8555 8.79371 70.4568 8.45056C70.5809 8.42983 70.6802 8.42377 70.8336 8.38932C71.0267 9.14867 71.7033 9.76993 72.4994 9.57602C72.58 10.4208 72.4276 11.0261 71.4274 11.906ZM71.1287 8.30927C71.4293 8.27579 71.4381 8.27674 71.7792 8.23242C71.6702 8.51689 71.9305 8.93755 72.4572 8.93755C73.0642 8.93755 73.578 8.45247 73.1442 8.01555C73.4876 7.95017 73.8297 7.87523 74.1696 7.78848C74.3079 7.75148 74.4654 7.75691 74.6027 7.71577C73.1596 9.95362 71.3785 9.45005 71.1287 8.30927ZM75.9368 6.35781C75.922 6.37822 75.8215 6.51886 75.2702 7.28746C75.2346 7.30021 75.2003 7.31265 75.165 7.32445C75.1776 7.27311 75.1861 7.22176 75.1924 7.17009C75.2375 7.0438 75.2605 6.90603 75.2554 6.74689C75.2576 6.7303 75.2579 6.71404 75.2589 6.69809C75.3506 6.67099 75.4533 6.64005 75.5745 6.60242C73.4192 6.94334 70.1103 7.08781 67.9515 7.12863C65.4103 7.16531 65.2474 7.05241 63.168 7.09419C64.199 7.24472 65.237 7.31552 66.2753 7.36559C67.054 7.40705 67.8349 7.4112 68.6133 7.41439C69.3854 7.41598 70.0876 7.38919 70.8626 7.34997C70.8052 7.56141 70.7737 7.77955 70.7803 7.99928C70.1333 8.04553 69.485 8.08061 68.8357 8.09943C67.9493 8.12845 67.0613 8.14025 66.1742 8.12717C64.2747 8.11505 61.8049 7.98717 59.9082 7.66729C59.7277 7.43926 59.5447 7.21283 59.3563 6.99086C59.4798 7.209 59.6074 7.42427 59.7372 7.63859C59.6439 7.622 59.5416 7.60956 59.1761 7.53079C58.9355 7.1449 58.6964 6.75901 58.4582 6.37375C59.3062 6.49909 60.1568 6.58998 61.0079 6.66174C66.9435 7.13565 73.0377 6.78835 76.026 6.23407C75.9645 6.31954 75.9444 6.3476 75.9387 6.35589L75.9368 6.35781ZM55.7431 5.19503C55.7031 5.15516 55.716 5.16122 55.7078 5.1507C55.9869 4.29408 64.5547 3.41323 72.5958 4.0584C73.4885 4.13335 74.3794 4.22902 75.2614 4.36361L74.5438 5.28624C73.8287 4.78649 73.0667 4.88568 72.3387 5.35895C72.1862 5.34109 72.0335 5.32323 71.8804 5.30792C69.0938 5.02249 65.7514 5.00463 62.945 5.22469C61.6244 5.32674 59.8172 5.53595 58.5439 5.91004C59.8556 5.63577 61.6036 5.5098 62.9623 5.43932C66.1632 5.28879 69.1416 5.33057 71.857 5.52288C71.9333 5.52862 72.0092 5.53531 72.0851 5.54137C71.8296 5.74453 71.5975 5.9885 71.4015 6.25639C68.3563 6.42414 64.292 6.41936 61.0445 6.17921C55.7151 5.793 55.8149 5.1338 55.7431 5.19503ZM78.2726 0.0167353C78.0329 0.0699949 77.8382 0.262622 77.7784 0.503725C77.7311 0.69699 77.768 0.88005 77.8578 1.02707L75.5308 4.0179C74.7265 3.90149 73.9213 3.8055 72.6222 3.71046C67.1882 3.31021 53.848 3.57332 55.4268 5.4642C55.545 5.60133 61.1484 12.343 63.7949 16.4306C65.6286 19.1675 65.9159 22.1405 65.9052 25.189C65.9017 27.4935 65.9609 32.2081 64.9989 33.8818C62.1477 34.0977 59.3056 34.9534 59.8607 36.6873L59.889 36.7572C61.5158 39.4696 71.5518 39.4438 73.5786 37.1826C73.6832 37.0777 73.9878 36.7323 73.9632 35.9117C73.9204 34.4705 69.2777 33.9076 68.4344 33.8573C68.144 33.3416 67.9918 32.6856 67.8863 32.0802C67.5688 30.205 67.5697 27.219 67.5744 25.189C67.5788 19.2083 68.8052 17.4728 72.3866 12.7601C74.2486 10.3268 76.18 7.9406 78.1378 5.58443L78.1838 5.52351C78.4402 5.24733 78.398 5.06299 78.2169 4.85378C77.8389 4.41686 76.524 4.1815 75.9138 4.07913L78.1347 1.27902C78.2761 1.34822 78.4449 1.37023 78.621 1.31601C78.8472 1.24713 79.0239 1.05354 79.0725 0.819455C79.1745 0.333422 78.7537 -0.0904216 78.2726 0.0167353Z" fill="#63612A"/>
<path d="M69.743 12.3905C70.9703 12.5346 72.1472 11.4647 72.1784 10.254C71.7934 11.4363 70.9495 12.1749 69.743 12.3905Z" fill="#63612A"/>
<path d="M71.5307 11.0287C71.1747 11.3406 71.3196 11.3668 70.4596 11.8372C70.5809 11.855 71.4652 11.4915 71.5307 11.0287Z" fill="#63612A"/>
<path d="M66.1109 18.5759C66.023 18.5456 65.9351 18.5105 65.8488 18.4704C65.7826 18.4382 65.7149 18.4028 65.6484 18.3645C65.5876 18.3304 65.5287 18.2934 65.4686 18.2529C65.5275 18.3686 65.6075 18.4732 65.7014 18.5654C65.7855 18.6474 65.8815 18.7198 65.9842 18.7797C65.9931 18.7861 66.0035 18.7922 66.0126 18.7973C66.2416 18.9267 66.5072 18.9994 66.7749 19.0004C67.0443 19.0023 67.3101 18.9322 67.5404 18.8046C67.7704 18.6773 67.9691 18.493 68.0888 18.264C67.8759 18.4028 67.6642 18.5096 67.4443 18.581C67.2241 18.6534 66.9998 18.6904 66.7771 18.6895C66.5541 18.6888 66.3285 18.649 66.1109 18.5759Z" fill="#63612A"/>
</svg>
