<svg width="1248" height="399" viewBox="0 0 1248 399" fill="none" xmlns="http://www.w3.org/2000/svg">
<path d="M50.6371 140.784V186.25H90.929V191.695H50.6371V297.055C50.6371 305.586 52.1798 311.575 55.2653 315.024C58.3507 318.472 62.6158 320.196 68.0607 320.196C73.5055 320.196 78.2244 318.018 82.2173 313.662C86.2102 309.125 89.6586 301.593 92.5625 291.066L98.0074 292.427C96.1924 302.954 92.5625 311.847 87.1176 319.107C81.8543 326.367 73.687 329.997 62.6158 329.997C56.445 329.997 51.3631 329.181 47.3702 327.547C43.3773 326.095 39.8382 323.917 36.7528 321.013C32.7599 316.839 29.9467 311.847 28.3132 306.039C26.8613 300.231 26.1353 292.518 26.1353 282.898V191.695H0V186.25H26.1353V144.595C30.6727 144.414 35.0285 144.051 39.2029 143.506C43.3773 142.962 47.1887 142.054 50.6371 140.784Z" fill="#FFF8E5"/>
<path d="M121.554 117.915C126.273 117.915 130.357 119.639 133.805 123.088C137.254 126.536 138.978 130.62 138.978 135.339C138.978 140.058 137.254 144.142 133.805 147.59C130.357 151.039 126.273 152.763 121.554 152.763C116.835 152.763 112.752 151.039 109.303 147.59C105.855 144.142 104.131 140.058 104.131 135.339C104.131 130.62 105.855 126.536 109.303 123.088C112.752 119.639 116.835 117.915 121.554 117.915ZM135.711 182.983V300.867C135.711 308.49 137.254 313.662 140.339 316.385C143.606 319.107 148.96 320.469 156.401 320.469V326.186C153.316 326.004 148.597 325.823 142.245 325.641C136.074 325.278 129.812 325.097 123.46 325.097C117.289 325.097 111.027 325.278 104.675 325.641C98.3228 325.823 93.604 326.004 90.5186 326.186V320.469C97.9599 320.469 103.223 319.107 106.309 316.385C109.576 313.662 111.209 308.49 111.209 300.867V258.26V215.652C111.209 207.485 109.757 201.496 106.853 197.684C103.949 193.691 98.5043 191.695 90.5186 191.695V185.977C96.3264 186.522 101.953 186.794 107.398 186.794C112.661 186.794 117.652 186.522 122.371 185.977C127.271 185.251 131.718 184.253 135.711 182.983Z" fill="#FFF8E5"/>
<path d="M200.768 182.983V350.144C200.768 357.948 203.037 363.121 207.574 365.662C212.293 368.385 218.736 369.746 226.904 369.746V375.463C222.911 375.282 217.375 375.009 210.297 374.646C203.218 374.465 195.686 374.374 187.701 374.374C182.074 374.374 176.448 374.465 170.822 374.646C165.377 375.009 161.202 375.282 158.298 375.463V369.746C164.832 369.746 169.46 368.566 172.183 366.207C174.905 363.847 176.266 359.4 176.266 352.866V215.652C176.266 207.485 174.814 201.496 171.911 197.684C169.007 193.691 163.562 191.695 155.576 191.695V185.977C161.384 186.522 167.01 186.794 172.455 186.794C177.718 186.794 182.71 186.522 187.428 185.977C192.329 185.251 196.775 184.253 200.768 182.983ZM244.327 182.166C253.946 182.166 262.567 184.798 270.19 190.061C277.813 195.143 283.802 202.675 288.158 212.658C292.696 222.64 294.964 234.982 294.964 249.684C294.964 259.485 293.785 269.195 291.425 278.814C289.066 288.252 285.345 296.874 280.263 304.678C275.363 312.301 268.92 318.472 260.934 323.191C253.13 327.729 243.692 329.997 232.621 329.997C224.09 329.997 216.649 328.001 210.297 324.008C204.126 320.015 199.952 315.205 197.774 309.579L200.496 305.767C203.037 310.849 206.667 315.114 211.386 318.563C216.286 322.011 222.366 323.736 229.626 323.736C239.79 323.736 247.685 320.559 253.311 314.207C258.938 307.854 262.84 299.415 265.018 288.888C267.377 278.179 268.557 266.382 268.557 253.495C268.557 238.975 267.377 227.087 265.018 217.83C262.658 208.574 259.119 201.677 254.4 197.14C249.681 192.602 243.873 190.333 236.977 190.333C228.083 190.333 220.007 194.054 212.747 201.496C205.487 208.756 200.859 219.827 198.863 234.71L195.596 230.898C197.592 215.471 203.037 203.492 211.93 194.962C221.005 186.431 231.804 182.166 244.327 182.166Z" fill="#FFF8E5"/>
<path d="M351.606 182.166C358.865 182.166 365.036 183.346 370.118 185.705C375.2 188.065 378.921 190.243 381.28 192.239C387.269 197.14 390.899 193.873 392.17 182.438H398.431C398.068 187.52 397.796 193.6 397.615 200.679C397.433 207.576 397.342 216.923 397.342 228.72H391.081C389.992 222.005 388.086 215.471 385.364 209.119C382.823 202.766 379.011 197.593 373.93 193.6C368.848 189.426 362.223 187.339 354.056 187.339C347.703 187.339 342.349 189.154 337.993 192.784C333.819 196.232 331.732 201.405 331.732 208.302C331.732 213.747 333.365 218.466 336.632 222.459C339.899 226.27 344.164 229.9 349.428 233.349C354.691 236.616 360.408 240.246 366.579 244.239C373.476 248.595 379.737 253.041 385.364 257.579C390.99 262.116 395.437 267.108 398.704 272.553C402.152 277.998 403.876 284.441 403.876 291.882C403.876 300.231 401.698 307.219 397.342 312.846C392.987 318.472 387.269 322.737 380.191 325.641C373.294 328.545 365.672 329.997 357.323 329.997C353.33 329.997 349.518 329.634 345.888 328.908C342.44 328.364 339.082 327.456 335.816 326.186C334.001 325.278 332.095 324.189 330.098 322.919C328.284 321.648 326.469 320.287 324.654 318.835C322.839 317.383 321.205 317.474 319.753 319.107C318.301 320.559 317.212 323.554 316.486 328.092H310.225C310.588 322.284 310.86 315.205 311.041 306.856C311.223 298.507 311.314 287.436 311.314 273.642H317.575C318.846 283.806 320.661 292.699 323.02 300.322C325.38 307.945 329.1 313.935 334.182 318.291C339.264 322.465 346.342 324.552 355.417 324.552C359.047 324.552 362.677 323.736 366.307 322.102C370.118 320.469 373.294 317.746 375.835 313.935C378.376 310.123 379.647 305.041 379.647 298.689C379.647 290.703 376.743 284.169 370.935 279.087C365.127 274.005 357.776 268.65 348.883 263.024C342.349 258.849 336.178 254.675 330.371 250.5C324.744 246.326 320.116 241.607 316.486 236.343C313.038 231.08 311.314 224.727 311.314 217.286C311.314 209.119 313.129 202.494 316.759 197.412C320.57 192.148 325.561 188.337 331.732 185.977C337.903 183.436 344.527 182.166 351.606 182.166Z" fill="#FFF8E5"/>
<path d="M538.436 185.977V191.422C534.988 191.785 531.812 193.328 528.908 196.051C526.004 198.773 523.282 203.583 520.741 210.48L476.093 327.547H471.465L421.372 206.941C417.924 199.862 414.475 195.597 411.027 194.145C407.76 192.511 405.037 191.695 402.86 191.695V185.977C406.852 186.522 411.027 186.976 415.383 187.339C419.739 187.52 424.457 187.611 429.539 187.611C435.166 187.611 441.064 187.429 447.235 187.066C453.587 186.703 459.486 186.34 464.931 185.977V191.695C460.393 191.695 456.31 192.058 452.68 192.784C449.232 193.328 447.054 195.234 446.146 198.501C445.239 201.586 446.328 206.941 449.413 214.564L482.899 297.6L481.265 298.144L512.301 217.014C514.661 211.024 515.568 206.305 515.023 202.857C514.661 199.227 512.846 196.504 509.579 194.689C506.312 192.874 501.411 191.785 494.878 191.422V185.977C498.144 186.159 500.958 186.34 503.317 186.522C505.677 186.522 507.945 186.613 510.123 186.794C512.483 186.794 515.024 186.794 517.746 186.794C521.92 186.794 525.641 186.703 528.908 186.522C532.356 186.34 535.532 186.159 538.436 185.977ZM476.093 327.547L466.837 351.233C465.022 355.77 463.116 359.582 461.119 362.667C459.305 365.753 457.308 368.294 455.13 370.29C452.226 373.013 448.778 374.828 444.785 375.735C440.792 376.824 437.162 377.369 433.895 377.369C430.447 377.369 427.271 376.734 424.367 375.463C421.644 374.193 419.466 372.287 417.833 369.746C416.199 367.386 415.383 364.482 415.383 361.034C415.383 356.678 416.653 353.139 419.194 350.416C421.735 347.875 425.274 346.605 429.812 346.605C433.623 346.605 436.89 347.694 439.612 349.872C442.335 352.05 443.696 355.226 443.696 359.4C443.696 362.486 442.97 365.027 441.518 367.023C440.066 369.02 438.342 370.563 436.345 371.652C436.708 371.833 436.981 371.924 437.162 371.924C437.525 371.924 437.797 371.924 437.979 371.924C442.879 371.924 447.235 370.2 451.046 366.751C454.858 363.484 458.216 358.13 461.119 350.688L470.92 325.369L476.093 327.547Z" fill="#FFF8E5"/>
<path d="M744.085 140.784V186.25H784.377V191.695H744.085V297.055C744.085 305.586 745.628 311.575 748.713 315.024C751.799 318.472 756.064 320.196 761.509 320.196C766.954 320.196 771.672 318.018 775.665 313.662C779.658 309.125 783.107 301.593 786.011 291.066L791.456 292.427C789.641 302.954 786.011 311.847 780.566 319.107C775.302 326.367 767.135 329.997 756.064 329.997C749.893 329.997 744.811 329.181 740.818 327.547C736.826 326.095 733.286 323.917 730.201 321.013C726.208 316.839 723.395 311.847 721.761 306.039C720.309 300.231 719.583 292.518 719.583 282.898V191.695H693.448V186.25H719.583V144.595C724.121 144.414 728.477 144.051 732.651 143.506C736.826 142.962 740.637 142.054 744.085 140.784Z" fill="#FFF8E5"/>
<path d="M868.368 182.166C873.269 182.166 877.534 183.164 881.164 185.161C884.975 187.157 887.879 189.789 889.875 193.056C892.053 196.141 893.142 199.681 893.142 203.674C893.142 208.211 891.69 212.204 888.787 215.652C886.064 219.101 882.343 220.825 877.625 220.825C873.813 220.825 870.456 219.646 867.552 217.286C864.648 214.745 863.196 211.206 863.196 206.668C863.196 203.22 864.103 200.316 865.918 197.956C867.915 195.415 870.093 193.419 872.452 191.967C871.182 190.152 869.276 189.244 866.735 189.244C861.109 189.244 855.936 190.969 851.217 194.417C846.498 197.684 842.505 201.949 839.238 207.213C835.971 212.476 833.431 218.103 831.616 224.092C829.801 229.9 828.893 235.345 828.893 240.427V298.144C828.893 307.038 831.434 313.027 836.516 316.113C841.779 319.017 848.858 320.469 857.751 320.469V326.186C853.576 326.004 847.678 325.823 840.055 325.641C832.432 325.278 824.356 325.097 815.826 325.097C809.655 325.097 803.484 325.278 797.313 325.641C791.324 325.823 786.786 326.004 783.701 326.186V320.469C791.142 320.469 796.406 319.107 799.491 316.385C802.758 313.662 804.391 308.49 804.391 300.867V215.652C804.391 207.485 802.939 201.496 800.035 197.684C797.132 193.691 791.687 191.695 783.701 191.695V185.977C789.509 186.522 795.135 186.794 800.58 186.794C805.843 186.794 810.834 186.522 815.553 185.977C820.454 185.251 824.9 184.253 828.893 182.983V217.014C830.89 211.75 833.703 206.487 837.333 201.223C841.144 195.778 845.681 191.241 850.945 187.611C856.208 183.981 862.016 182.166 868.368 182.166Z" fill="#FFF8E5"/>
<path d="M930.797 328.092C923.356 328.092 916.913 326.73 911.468 324.008C906.023 321.104 901.849 317.111 898.945 312.029C896.222 306.947 894.861 301.048 894.861 294.333C894.861 286.347 896.676 279.813 900.306 274.731C904.117 269.649 908.927 265.565 914.735 262.479C920.543 259.394 926.623 256.853 932.975 254.856C939.509 252.678 945.68 250.682 951.487 248.867C957.295 246.87 962.014 244.602 965.644 242.061C969.455 239.52 971.361 236.162 971.361 231.987V215.108C971.361 207.485 970.181 201.677 967.822 197.684C965.644 193.691 962.649 191.059 958.838 189.789C955.027 188.337 950.761 187.611 946.043 187.611C941.505 187.611 936.605 188.246 931.341 189.517C926.26 190.787 922.176 193.419 919.091 197.412C922.539 198.138 925.534 199.953 928.075 202.857C930.616 205.761 931.886 209.482 931.886 214.019C931.886 218.556 930.434 222.186 927.53 224.909C924.626 227.45 920.905 228.72 916.368 228.72C911.105 228.72 907.203 227.087 904.662 223.82C902.302 220.371 901.122 216.56 901.122 212.386C901.122 207.667 902.302 203.855 904.662 200.951C907.021 198.047 910.016 195.325 913.646 192.784C917.82 189.88 923.174 187.429 929.708 185.433C936.423 183.255 943.955 182.166 952.304 182.166C959.745 182.166 966.098 183.073 971.361 184.888C976.625 186.522 980.98 188.972 984.429 192.239C989.148 196.595 992.233 201.949 993.685 208.302C995.137 214.473 995.863 221.914 995.863 230.626V306.312C995.863 310.849 996.498 314.116 997.769 316.113C999.221 318.109 1001.4 319.107 1004.3 319.107C1006.3 319.107 1008.2 318.654 1010.02 317.746C1011.83 316.839 1014.01 315.387 1016.55 313.39L1019.55 318.018C1015.74 320.922 1012.11 323.373 1008.66 325.369C1005.21 327.184 1000.58 328.092 994.774 328.092C989.511 328.092 985.155 327.184 981.706 325.369C978.258 323.554 975.626 320.922 973.811 317.474C972.178 313.844 971.361 309.306 971.361 303.861C966.461 312.029 960.562 318.109 953.665 322.102C946.95 326.095 939.327 328.092 930.797 328.092ZM940.598 317.202C946.587 317.202 952.123 315.477 957.204 312.029C962.468 308.58 967.187 303.408 971.361 296.511V243.15C969.183 246.235 966.007 248.867 961.833 251.045C957.658 253.041 953.121 255.129 948.221 257.307C943.32 259.303 938.601 261.753 934.064 264.657C929.708 267.38 926.078 271.01 923.174 275.547C920.27 280.085 918.818 285.984 918.818 293.244C918.818 300.504 920.724 306.312 924.535 310.668C928.528 315.024 933.882 317.202 940.598 317.202Z" fill="#FFF8E5"/>
<path d="M1045.97 117.915C1050.69 117.915 1054.77 119.639 1058.22 123.088C1061.67 126.536 1063.39 130.62 1063.39 135.339C1063.39 140.058 1061.67 144.142 1058.22 147.59C1054.77 151.039 1050.69 152.763 1045.97 152.763C1041.25 152.763 1037.17 151.039 1033.72 147.59C1030.27 144.142 1028.54 140.058 1028.54 135.339C1028.54 130.62 1030.27 126.536 1033.72 123.088C1037.17 119.639 1041.25 117.915 1045.97 117.915ZM1060.12 182.983V300.867C1060.12 308.49 1061.67 313.662 1064.75 316.385C1068.02 319.107 1073.37 320.469 1080.82 320.469V326.186C1077.73 326.004 1073.01 325.823 1066.66 325.641C1060.49 325.278 1054.23 325.097 1047.87 325.097C1041.7 325.097 1035.44 325.278 1029.09 325.641C1022.74 325.823 1018.02 326.004 1014.93 326.186V320.469C1022.37 320.469 1027.64 319.107 1030.72 316.385C1033.99 313.662 1035.62 308.49 1035.62 300.867V215.652C1035.62 207.485 1034.17 201.496 1031.27 197.684C1028.36 193.691 1022.92 191.695 1014.93 191.695V185.977C1020.74 186.522 1026.37 186.794 1031.81 186.794C1037.08 186.794 1042.07 186.522 1046.79 185.977C1051.69 185.251 1056.13 184.253 1060.12 182.983Z" fill="#FFF8E5"/>
<path d="M1125.18 112.742V300.867C1125.18 308.49 1126.73 313.662 1129.81 316.385C1133.08 319.107 1138.43 320.469 1145.87 320.469V326.186C1142.79 326.004 1138.07 325.823 1131.72 325.641C1125.55 325.278 1119.28 325.097 1112.93 325.097C1106.76 325.097 1100.5 325.278 1094.15 325.641C1087.79 325.823 1083.08 326.004 1079.99 326.186V320.469C1087.43 320.469 1092.69 319.107 1095.78 316.385C1099.05 313.662 1100.68 308.49 1100.68 300.867V145.412C1100.68 137.245 1099.23 131.255 1096.32 127.444C1093.42 123.451 1087.98 121.454 1079.99 121.454V115.737C1085.8 116.281 1091.42 116.554 1096.87 116.554C1102.13 116.554 1107.12 116.281 1111.84 115.737C1116.74 115.011 1121.19 114.013 1125.18 112.742Z" fill="#FFF8E5"/>
<path d="M1195.73 182.166C1202.99 182.166 1209.16 183.346 1214.24 185.705C1219.32 188.065 1223.04 190.243 1225.4 192.239C1231.39 197.14 1235.02 193.873 1236.29 182.438H1242.56C1242.19 187.52 1241.92 193.6 1241.74 200.679C1241.56 207.576 1241.47 216.923 1241.47 228.72H1235.2C1234.12 222.005 1232.21 215.471 1229.49 209.119C1226.95 202.766 1223.14 197.593 1218.05 193.6C1212.97 189.426 1206.35 187.339 1198.18 187.339C1191.83 187.339 1186.47 189.154 1182.12 192.784C1177.94 196.232 1175.86 201.405 1175.86 208.302C1175.86 213.747 1177.49 218.466 1180.76 222.459C1184.02 226.27 1188.29 229.9 1193.55 233.349C1198.81 236.616 1204.53 240.246 1210.7 244.239C1217.6 248.595 1223.86 253.041 1229.49 257.579C1235.11 262.116 1239.56 267.108 1242.83 272.553C1246.28 277.998 1248 284.441 1248 291.882C1248 300.231 1245.82 307.219 1241.47 312.846C1237.11 318.472 1231.39 322.737 1224.31 325.641C1217.42 328.545 1209.8 329.997 1201.45 329.997C1197.45 329.997 1193.64 329.634 1190.01 328.908C1186.56 328.364 1183.21 327.456 1179.94 326.186C1178.12 325.278 1176.22 324.189 1174.22 322.919C1172.41 321.648 1170.59 320.287 1168.78 318.835C1166.96 317.383 1165.33 317.474 1163.88 319.107C1162.43 320.559 1161.34 323.554 1160.61 328.092H1154.35C1154.71 322.284 1154.98 315.205 1155.17 306.856C1155.35 298.507 1155.44 287.436 1155.44 273.642H1161.7C1162.97 283.806 1164.78 292.699 1167.14 300.322C1169.5 307.945 1173.22 313.935 1178.31 318.291C1183.39 322.465 1190.47 324.552 1199.54 324.552C1203.17 324.552 1206.8 323.736 1210.43 322.102C1214.24 320.469 1217.42 317.746 1219.96 313.935C1222.5 310.123 1223.77 305.041 1223.77 298.689C1223.77 290.703 1220.87 284.169 1215.06 279.087C1209.25 274.005 1201.9 268.65 1193.01 263.024C1186.47 258.849 1180.3 254.675 1174.49 250.5C1168.87 246.326 1164.24 241.607 1160.61 236.343C1157.16 231.08 1155.44 224.727 1155.44 217.286C1155.44 209.119 1157.25 202.494 1160.88 197.412C1164.69 192.148 1169.68 188.337 1175.86 185.977C1182.03 183.436 1188.65 182.166 1195.73 182.166Z" fill="#FFF8E5"/>
<path d="M919.673 358.874H928.368L940.013 387.298H940.473L952.118 358.874H960.813V398.101H953.995V371.152H953.631L942.79 397.986H937.695L926.855 371.094H926.491V398.101H919.673V358.874Z" fill="#FFF8E5"/>
<path d="M1004.14 378.488C1004.14 382.714 1003.35 386.334 1001.77 389.348C1000.19 392.348 998.05 394.647 995.33 396.243C992.623 397.839 989.552 398.637 986.117 398.637C982.683 398.637 979.605 397.839 976.886 396.243C974.179 394.634 972.034 392.329 970.45 389.329C968.88 386.315 968.094 382.701 968.094 378.488C968.094 374.261 968.88 370.647 970.45 367.647C972.034 364.633 974.179 362.328 976.886 360.732C979.605 359.136 982.683 358.338 986.117 358.338C989.552 358.338 992.623 359.136 995.33 360.732C998.05 362.328 1000.19 364.633 1001.77 367.647C1003.35 370.647 1004.14 374.261 1004.14 378.488ZM996.996 378.488C996.996 375.512 996.53 373.003 995.598 370.96C994.679 368.904 993.402 367.353 991.768 366.306C990.133 365.246 988.25 364.716 986.117 364.716C983.985 364.716 982.102 365.246 980.467 366.306C978.833 367.353 977.55 368.904 976.617 370.96C975.698 373.003 975.238 375.512 975.238 378.488C975.238 381.463 975.698 383.978 976.617 386.034C977.55 388.077 978.833 389.629 980.467 390.688C982.102 391.736 983.985 392.259 986.117 392.259C988.25 392.259 990.133 391.736 991.768 390.688C993.402 389.629 994.679 388.077 995.598 386.034C996.53 383.978 996.996 381.463 996.996 378.488Z" fill="#FFF8E5"/>
<path d="M1011.4 398.101V358.874H1026.41C1029.25 358.874 1031.6 359.321 1033.48 360.215C1035.37 361.096 1036.78 362.303 1037.71 363.835C1038.66 365.368 1039.13 367.104 1039.13 369.045C1039.13 370.641 1038.82 372.007 1038.21 373.144C1037.6 374.267 1036.78 375.18 1035.74 375.883C1034.71 376.585 1033.55 377.089 1032.27 377.396V377.779C1033.67 377.856 1035 378.283 1036.28 379.062C1037.57 379.828 1038.62 380.914 1039.44 382.318C1040.25 383.723 1040.66 385.421 1040.66 387.413C1040.66 389.443 1040.17 391.269 1039.19 392.891C1038.21 394.5 1036.72 395.771 1034.75 396.703C1032.77 397.635 1030.28 398.101 1027.28 398.101H1011.4ZM1018.5 392.163H1026.15C1028.72 392.163 1030.58 391.672 1031.72 390.688C1032.87 389.693 1033.44 388.416 1033.44 386.858C1033.44 385.696 1033.16 384.649 1032.58 383.717C1032.01 382.772 1031.19 382.031 1030.13 381.495C1029.07 380.946 1027.81 380.671 1026.34 380.671H1018.5V392.163ZM1018.5 375.557H1025.53C1026.76 375.557 1027.86 375.334 1028.85 374.887C1029.83 374.427 1030.6 373.782 1031.16 372.952C1031.74 372.11 1032.03 371.114 1032.03 369.964C1032.03 368.445 1031.49 367.193 1030.42 366.21C1029.36 365.227 1027.78 364.735 1025.69 364.735H1018.5V375.557Z" fill="#FFF8E5"/>
<path d="M1054.49 358.874V398.101H1047.38V358.874H1054.49Z" fill="#FFF8E5"/>
<path d="M1062.72 398.101V358.874H1069.83V392.144H1087.11V398.101H1062.72Z" fill="#FFF8E5"/>
<path d="M1093.81 398.101V358.874H1119.32V364.831H1100.92V375.481H1118V381.437H1100.92V392.144H1119.48V398.101H1093.81Z" fill="#FFF8E5"/>
<path d="M1141.03 398.101V358.874H1156.05C1158.88 358.874 1161.24 359.321 1163.11 360.215C1165 361.096 1166.41 362.303 1167.35 363.835C1168.29 365.368 1168.76 367.104 1168.76 369.045C1168.76 370.641 1168.46 372.007 1167.85 373.144C1167.23 374.267 1166.41 375.18 1165.37 375.883C1164.34 376.585 1163.18 377.089 1161.91 377.396V377.779C1163.3 377.856 1164.63 378.283 1165.91 379.062C1167.2 379.828 1168.25 380.914 1169.07 382.318C1169.89 383.723 1170.3 385.421 1170.3 387.413C1170.3 389.443 1169.81 391.269 1168.82 392.891C1167.84 394.5 1166.36 395.771 1164.38 396.703C1162.4 397.635 1159.91 398.101 1156.91 398.101H1141.03ZM1148.14 392.163H1155.78C1158.36 392.163 1160.22 391.672 1161.35 390.688C1162.5 389.693 1163.08 388.416 1163.08 386.858C1163.08 385.696 1162.79 384.649 1162.21 383.717C1161.64 382.772 1160.82 382.031 1159.76 381.495C1158.7 380.946 1157.44 380.671 1155.97 380.671H1148.14V392.163ZM1148.14 375.557H1155.17C1156.39 375.557 1157.5 375.334 1158.48 374.887C1159.46 374.427 1160.23 373.782 1160.8 372.952C1161.37 372.11 1161.66 371.114 1161.66 369.964C1161.66 368.445 1161.12 367.193 1160.05 366.21C1158.99 365.227 1157.41 364.735 1155.32 364.735H1148.14V375.557Z" fill="#FFF8E5"/>
<path d="M1182.05 398.101H1174.47L1188.28 358.874H1197.05L1210.88 398.101H1203.3L1192.82 366.919H1192.51L1182.05 398.101ZM1182.3 382.721H1202.99V388.428H1182.3V382.721Z" fill="#FFF8E5"/>
<path d="M1216.59 398.101V358.874H1231.3C1234.31 358.874 1236.84 359.398 1238.88 360.445C1240.94 361.492 1242.49 362.961 1243.53 364.85C1244.59 366.727 1245.12 368.917 1245.12 371.42C1245.12 373.936 1244.59 376.119 1243.52 377.971C1242.46 379.809 1240.89 381.233 1238.82 382.242C1236.75 383.238 1234.21 383.736 1231.2 383.736H1220.72V377.836H1230.24C1232 377.836 1233.45 377.594 1234.57 377.109C1235.69 376.611 1236.52 375.889 1237.06 374.944C1237.61 373.987 1237.88 372.812 1237.88 371.42C1237.88 370.028 1237.61 368.841 1237.06 367.857C1236.51 366.862 1235.68 366.108 1234.55 365.597C1233.43 365.074 1231.98 364.812 1230.2 364.812H1223.69V398.101H1216.59ZM1236.85 380.326L1246.56 398.101H1238.63L1229.09 380.326H1236.85Z" fill="#FFF8E5"/>
<path d="M581.842 320.446C581.816 319.877 581.885 319.316 582.03 318.759C582.197 318.21 582.472 317.681 582.842 317.181C583.591 316.196 584.73 315.427 585.999 314.803C584.582 314.829 583.128 315.271 581.874 316.207C581.272 316.701 580.752 317.32 580.344 318.03C579.957 318.753 579.752 319.565 579.654 320.377C579.512 322.018 579.934 323.645 580.668 325.014C581.4 326.401 582.4 327.591 583.516 328.597C585.759 330.62 588.459 331.92 591.222 332.714C593.995 333.494 596.853 333.807 599.672 333.575C594.815 331.888 589.285 330.024 585.4 326.511C583.539 324.841 582.03 322.732 581.842 320.446Z" fill="#FFF8E5"/>
<path d="M598.342 318.111C597.958 316.08 601.892 314.381 603.956 313.434C586.811 314.477 598.675 330.438 621.962 322.989C623.59 322.466 625.18 321.717 626.486 320.622C623.546 321.619 619.861 321.905 616.779 321.989C612.313 322.061 600.88 321.622 598.342 318.111Z" fill="#FFF8E5"/>
<path d="M636.5 109.498C633.993 108.226 631.455 104.233 632.927 101.61C633.285 100.965 633.892 100.63 634.71 100.575C632.909 102.144 633.459 104.759 634.855 106.709C634.355 96.5647 639.989 104.935 639.963 106.602C639.919 109.368 638.439 110.477 636.5 109.498ZM641.521 109.099C642.223 107.313 641.891 104.947 640.879 102.921C639.622 100.384 637.306 98.3821 634.638 98.7C629.409 99.3183 629.929 105.614 632.635 108.593C633.459 109.506 634.401 110.538 635.653 111.173C637.954 112.338 640.558 111.558 641.521 109.099Z" fill="#FFF8E5"/>
<path d="M719.645 9.38321C717.83 9.38321 716.356 7.90963 716.356 6.10087C716.356 4.28922 717.83 2.81564 719.645 2.81564C721.455 2.81564 722.929 4.28922 722.929 6.10087C722.929 7.90963 721.455 9.38321 719.645 9.38321ZM715.096 46.6736C713.023 50.3143 693.389 53.1343 689.244 53.6891C688.501 52.2502 687.503 50.9268 686.327 49.7682L694.115 40.0772C697.396 40.6262 713.881 43.5849 715.096 46.6736ZM636.488 147.955C635.115 149.516 633.701 151.03 632.21 152.46C602.58 181.059 585.16 136.675 517.269 53.8422C520.984 54.9691 524.944 55.8099 528.783 56.5091C525.019 58.8871 524.663 61.8718 528.537 64.7843C531.243 66.7636 534.697 68.0262 537.836 69.0577C599.47 156.794 610.564 179.06 639.359 136.817C614.819 163.405 608.5 171.452 544.809 71.037C546.54 71.4588 548.283 71.846 550.029 72.1985C559.569 87.3591 575.514 110.003 587.404 123.858C582.137 114.658 576.367 106.221 572.473 100.393C565.391 90.2052 560.312 82.9528 552.252 72.6319C570.039 75.9634 589.115 77.1365 607.208 77.385C618.644 77.4601 630.091 77.1596 641.503 76.3101C628.29 84.3137 617.299 103.014 631.629 113.476C631.799 113.598 631.97 113.699 632.14 113.811C612.501 139.955 614.77 136.534 614.284 138.634L633.947 114.93C641.735 119.22 649.43 116.611 656.281 110.679C663.169 104.719 670.217 95.6285 667.578 86.16C672.018 85.3597 676.123 83.1464 679.603 80.2368C680.329 79.6271 681.083 78.9568 681.841 78.2373L645.623 128.079L704.226 55.1107C705.544 54.7986 706.4 54.6252 708.794 53.9087C692.239 73.8483 655.538 117.964 636.488 147.955ZM616.759 228.211C616.791 246.72 616.906 273.996 619.924 291.185C622.523 303.578 624.116 311.538 632.424 316.06C632.947 316.514 634.222 317.444 635.048 318.525C635.933 319.677 635.907 320.356 634.95 321.579C630.851 326.907 619.681 328.036 612.718 327.95V327.938C612.518 327.941 611.758 327.941 611.637 327.938V327.947C604.69 328.002 593.503 326.791 589.488 321.512C588.566 320.33 588.554 319.703 589.41 318.603C593.246 313.618 603.837 317.146 607.014 270.214C612.4 190.606 601.374 167.704 592.101 152.786C605.407 167.265 616.938 168.632 631.539 157.479C615.238 186.237 616.75 226.339 616.759 228.211ZM671.98 331.405C659.359 341.261 630.423 343.844 613.66 343.888C545.563 343.755 526.843 315.895 595.125 309.033C590.951 314.89 585.756 315.944 585.84 320.108C585.854 321.255 586.476 322.365 587.164 323.283C588.427 324.913 590.023 326.025 591.659 326.936C607.592 335.491 643.041 329.377 638.254 318.192C637.647 316.788 636.503 315.629 635.335 314.63C634.077 313.578 633.855 313.41 633.372 312.96C631.343 311.134 630.299 310.258 629.293 308.819C654.171 310.715 687.983 319.441 671.98 331.405ZM673.83 335.514C650.52 357.164 554.863 352.33 550.92 330.507C568.588 353.324 651.667 352.313 673.723 333.653C674.464 333.078 675.183 332.446 675.851 331.735C675.409 332.769 674.741 334.72 673.83 335.514ZM535.903 66.3706C529.291 64.2787 523.681 61.3228 529.254 57.1477C530.861 59.361 533.139 62.5191 535.903 66.3706ZM658.512 56.4976C660.975 53.2441 679.49 42.721 686.113 54.1052C677.065 55.2176 667.592 55.9515 658.512 56.4976ZM680.207 68.7775C671.324 70.5227 661.47 71.5686 652.399 72.2563C652.407 70.2771 652.766 68.2949 653.355 66.3793C661.325 65.7898 666.618 65.5096 679.592 63.2876C683.734 62.4064 685.266 62.1492 688.033 61.4095C687.908 63.8193 686.923 65.6656 685.703 67.5495C683.884 68.0147 682.049 68.4163 680.207 68.7775ZM666.479 73.4496C667.141 73.3398 667.806 73.2329 668.471 73.1173C669.202 73.3109 669.491 73.5305 669.977 74.0304C668.85 73.6548 667.673 73.4554 666.479 73.4496ZM663.262 77.3301C662.817 76.5008 663.262 75.189 665.653 75.6542C667.092 75.9316 668.662 76.4257 670.127 77.1249C668.85 78.4945 666.124 79.3555 663.881 79.0232C662.669 78.847 661.088 78.2489 660.455 76.4372C660.264 75.8883 660.149 75.0619 661.328 74.2268C662.242 74.0968 663.149 73.9668 664.063 73.8281C661.929 74.7469 662.21 77.0296 663.262 77.3301ZM655.451 107.868C636.69 124.15 618.742 107.388 631.999 88.4398C635.878 82.8921 641.026 79.6705 646.545 76.5615C647.684 76.3737 648.594 76.3188 650.002 76.0067C651.774 82.8864 657.983 88.5149 665.288 86.7581C666.028 94.4121 664.629 99.8962 655.451 107.868ZM652.711 75.2815C655.469 74.9781 655.549 74.9868 658.68 74.5851C657.68 77.1625 660.068 80.9736 664.901 80.9736C670.471 80.9736 675.186 76.5788 671.206 72.6204C674.356 72.028 677.496 71.349 680.615 70.5631C681.884 70.2279 683.329 70.2771 684.59 69.9043C671.347 90.1792 655.003 85.6168 652.711 75.2815ZM696.832 57.6013C696.829 57.6071 696.829 57.6071 696.832 57.6071C696.696 57.792 695.774 59.0605 690.715 66.0239C690.388 66.1395 690.073 66.2521 689.75 66.359C689.865 65.8939 689.943 65.4287 690.001 64.9606C690.415 63.8164 690.626 62.5682 690.579 61.1264C690.6 60.9761 690.602 60.8288 690.611 60.6843C691.452 60.4387 692.395 60.1584 693.508 59.8175C673.729 62.9062 643.365 64.2151 623.555 64.585C600.235 64.9173 598.741 63.8944 579.659 64.2729C589.121 65.6367 598.646 66.2781 608.173 66.7318C615.319 67.1074 622.485 67.145 629.628 67.1739C636.714 67.1883 643.157 66.9456 650.268 66.5902C649.742 68.5059 649.453 70.4822 649.514 72.473C643.576 72.892 637.627 73.2098 631.669 73.3803C623.535 73.6432 615.386 73.7501 607.246 73.6316C589.815 73.5218 567.151 72.3632 549.746 69.4651C548.09 67.3992 546.41 65.3478 544.682 63.3368C545.815 65.3131 546.986 67.2634 548.177 69.2051C547.321 69.0549 546.381 68.9422 543.028 68.2285C540.82 64.7323 538.625 61.2362 536.44 57.7458C544.222 58.8813 552.027 59.7048 559.838 60.3549C614.305 64.6485 670.229 61.502 697.65 56.4802C697.086 57.2546 696.901 57.5089 696.849 57.584C696.843 57.5869 696.841 57.5898 696.832 57.6013ZM511.525 47.0666C511.158 46.7054 511.276 46.7603 511.201 46.665C513.762 38.9041 592.384 30.9236 666.173 36.7688C674.365 37.4478 682.54 38.3147 690.634 39.534L684.049 47.893C677.487 43.3653 670.495 44.2639 663.814 48.5518C662.415 48.3899 661.013 48.2281 659.608 48.0895C634.037 45.5034 603.366 45.3416 577.613 47.3353C565.495 48.2599 548.911 50.1554 537.226 53.5446C549.263 51.0597 565.304 49.9184 577.772 49.2799C607.144 47.9161 634.476 48.2946 659.394 50.0369C660.094 50.0889 660.79 50.1496 661.487 50.2045C659.143 52.045 657.012 54.2554 655.214 56.6825C627.27 58.2023 589.974 58.159 560.173 55.9833C511.268 52.4842 512.184 46.5118 511.525 47.0666ZM718.267 0.151621C716.067 0.634149 714.28 2.37934 713.731 4.56372C713.297 6.31469 713.636 7.97319 714.46 9.3052L693.106 36.4019C685.726 35.3472 678.337 34.4775 666.416 33.6165C616.551 29.9903 494.134 32.3741 508.623 49.5052C509.707 50.7477 561.127 111.826 585.412 148.86C602.239 173.656 604.875 200.591 604.777 228.211C604.745 249.09 605.289 291.803 596.46 306.967C570.296 308.923 544.216 316.675 549.31 332.385L549.57 333.018C564.497 357.592 656.593 357.358 675.192 336.872C676.152 335.922 678.947 332.792 678.722 325.358C678.328 312.301 635.725 307.201 627.986 306.745C625.321 302.072 623.925 296.129 622.957 290.645C620.043 273.655 620.051 246.602 620.095 228.211C620.135 174.026 631.389 158.302 664.253 115.606C681.341 93.5598 699.064 71.9414 717.029 50.5946L717.451 50.0427C719.804 47.5405 719.417 45.8704 717.755 43.975C714.286 40.0165 702.22 37.8841 696.621 36.9566L717 11.5878C718.298 12.2148 719.848 12.4142 721.464 11.923C723.539 11.2989 725.161 9.54502 725.606 7.42421C726.543 3.02078 722.681 -0.819213 718.267 0.151621Z" fill="#FFF8E5"/>
<path d="M639.995 112.257C651.257 113.563 662.057 103.869 662.343 92.901C658.81 103.612 651.066 110.304 639.995 112.257Z" fill="#FFF8E5"/>
<path d="M656.399 99.9193C653.133 102.745 654.463 102.982 646.571 107.244C647.684 107.406 655.798 104.112 656.399 99.9193Z" fill="#FFF8E5"/>
<path d="M606.664 168.297C605.858 168.022 605.051 167.704 604.259 167.34C603.652 167.048 603.031 166.728 602.421 166.381C601.863 166.072 601.322 165.737 600.77 165.37C601.311 166.419 602.045 167.366 602.907 168.201C603.678 168.944 604.56 169.6 605.502 170.143C605.583 170.201 605.679 170.256 605.763 170.302C607.864 171.475 610.301 172.134 612.758 172.142C615.23 172.16 617.669 171.524 619.783 170.368C621.893 169.215 623.717 167.545 624.815 165.471C622.861 166.728 620.919 167.696 618.901 168.343C616.88 168.999 614.822 169.334 612.778 169.325C610.732 169.319 608.662 168.958 606.664 168.297Z" fill="#FFF8E5"/>
</svg>
