<svg width="210" height="343" viewBox="0 0 210 343" fill="none" xmlns="http://www.w3.org/2000/svg">
<path d="M71.4992 311.904C71.4742 311.35 71.5409 310.805 71.6797 310.262C71.8409 309.727 72.1048 309.213 72.4603 308.726C73.1798 307.767 74.2743 307.019 75.4938 306.412C74.1326 306.437 72.7353 306.867 71.5297 307.778C70.9519 308.259 70.4519 308.861 70.0602 309.553C69.688 310.256 69.4907 311.046 69.3963 311.837C69.2601 313.434 69.6657 315.017 70.3713 316.351C71.0742 317.7 72.0353 318.859 73.1076 319.838C75.2633 321.807 77.8579 323.072 80.5136 323.845C83.1776 324.605 85.925 324.909 88.6335 324.684C83.9666 323.041 78.6524 321.227 74.9188 317.807C73.1299 316.182 71.6797 314.129 71.4992 311.904Z" fill="#FFF8E5"/>
<path d="M87.3556 309.632C86.9862 307.655 90.767 306.001 92.7504 305.079C76.2745 306.094 87.6751 321.629 110.054 314.379C111.618 313.87 113.146 313.142 114.402 312.076C111.576 313.046 108.035 313.324 105.073 313.406C100.781 313.476 89.7946 313.049 87.3556 309.632Z" fill="#FFF8E5"/>
<path d="M124.024 106.579C121.616 105.341 119.177 101.455 120.591 98.9011C120.935 98.2739 121.519 97.9477 122.305 97.8942C120.574 99.4213 121.102 101.967 122.444 103.865C121.963 93.9907 127.377 102.138 127.352 103.761C127.311 106.452 125.888 107.532 124.024 106.579ZM128.85 106.191C129.525 104.453 129.205 102.149 128.233 100.178C127.024 97.7086 124.799 95.7597 122.235 96.069C117.21 96.6709 117.71 102.799 120.31 105.699C121.102 106.587 122.008 107.591 123.21 108.21C125.422 109.343 127.925 108.584 128.85 106.191Z" fill="#FFF8E5"/>
<path d="M203.926 9.13309C202.182 9.13309 200.765 7.69879 200.765 5.93824C200.765 4.17489 202.182 2.74058 203.926 2.74058C205.665 2.74058 207.082 4.17489 207.082 5.93824C207.082 7.69879 205.665 9.13309 203.926 9.13309ZM199.554 45.4295C197.562 48.9731 178.694 51.718 174.711 52.2579C173.997 50.8574 173.038 49.5693 171.908 48.4416L179.391 39.0089C182.544 39.5432 198.387 42.4231 199.554 45.4295ZM124.013 144.011C122.694 145.53 121.335 147.004 119.902 148.396C91.428 176.233 74.6883 133.032 9.4457 52.407C13.0153 53.5038 16.8211 54.3222 20.5102 55.0028C16.8933 57.3174 16.5517 60.2226 20.2741 63.0574C22.8742 64.9839 26.1939 66.2129 29.2107 67.2169C88.439 152.614 99.1007 174.287 126.772 133.17C103.19 159.049 97.1173 166.882 35.911 69.1434C37.575 69.554 39.2501 69.9309 40.928 70.274C50.0952 85.0305 65.4183 107.071 76.8439 120.556C71.7825 111.602 66.2378 103.39 62.4959 97.7171C55.6899 87.8007 50.8091 80.7416 43.0642 70.6958C60.1568 73.9385 78.4885 75.0803 95.8756 75.3222C106.865 75.3953 117.866 75.1028 128.833 74.276C116.135 82.0662 105.573 100.268 119.343 110.451C119.507 110.57 119.671 110.668 119.835 110.778C100.962 136.224 103.143 132.894 102.676 134.939L121.571 111.866C129.055 116.042 136.45 113.503 143.034 107.729C149.654 101.927 156.426 93.0795 153.89 83.8633C158.157 83.0843 162.102 80.93 165.446 78.098C166.143 77.5046 166.868 76.8521 167.596 76.1518L132.792 124.665L189.109 53.6416C190.375 53.3379 191.198 53.1691 193.498 52.4717C177.589 71.8798 142.32 114.819 124.013 144.011ZM105.054 222.128C105.084 240.144 105.196 266.693 108.096 283.423C110.593 295.486 112.124 303.234 120.108 307.635C120.61 308.077 121.835 308.982 122.63 310.034C123.48 311.156 123.455 311.817 122.535 313.007C118.596 318.193 107.862 319.292 101.17 319.208V319.197C100.979 319.199 100.248 319.199 100.131 319.197C93.456 319.25 82.7054 318.08 78.8468 312.942C77.9606 311.792 77.9496 311.181 78.7719 310.11C82.4582 305.259 92.6365 308.692 95.6894 263.011C100.865 185.525 90.2697 163.234 81.3581 148.714C94.1449 162.806 105.226 164.137 119.257 153.281C103.593 181.272 105.046 220.305 105.054 222.128ZM158.121 322.572C145.992 332.164 118.185 334.679 102.076 334.721C36.6361 334.592 18.6462 307.475 84.2638 300.795C80.2525 306.496 75.2605 307.522 75.3411 311.575C75.355 312.692 75.9522 313.772 76.6133 314.666C77.8273 316.252 79.3608 317.335 80.9331 318.221C96.245 326.548 130.311 320.597 125.711 309.711C125.127 308.344 124.027 307.216 122.905 306.243C121.696 305.219 121.483 305.056 121.019 304.617C119.069 302.84 118.066 301.988 117.099 300.587C141.006 302.432 173.499 310.925 158.121 322.572ZM159.899 326.571C137.497 347.644 45.5727 342.939 41.7836 321.697C58.7623 343.906 138.6 342.922 159.796 324.76C160.507 324.2 161.199 323.584 161.84 322.892C161.415 323.899 160.774 325.797 159.899 326.571ZM27.3523 64.6014C20.9991 62.5653 15.6071 59.6882 20.963 55.6243C22.5075 57.7786 24.6966 60.8525 27.3523 64.6014ZM145.178 54.9916C147.545 51.8248 165.338 41.5822 171.702 52.6629C163.007 53.7457 153.904 54.46 145.178 54.9916ZM166.027 66.9441C157.49 68.6428 148.02 69.6609 139.303 70.3302C139.311 68.4037 139.656 66.4745 140.222 64.6099C147.881 64.0361 152.968 63.7633 165.435 61.6006C169.416 60.7429 170.888 60.4926 173.547 59.7726C173.427 62.1181 172.48 63.9152 171.308 65.7489C169.56 66.2017 167.796 66.5926 166.027 66.9441ZM152.834 71.4917C153.47 71.3849 154.109 71.2808 154.748 71.1683C155.451 71.3567 155.729 71.5705 156.196 72.057C155.112 71.6914 153.982 71.4974 152.834 71.4917ZM149.742 75.2687C149.315 74.4616 149.742 73.1848 152.04 73.6376C153.423 73.9075 154.932 74.3885 156.34 75.0691C155.112 76.4021 152.493 77.2402 150.337 76.9168C149.173 76.7452 147.653 76.1631 147.045 74.3997C146.862 73.8654 146.751 73.061 147.884 72.2482C148.762 72.1217 149.634 71.9951 150.512 71.8601C148.462 72.7545 148.731 74.9762 149.742 75.2687ZM142.237 104.993C124.208 120.84 106.96 104.526 119.699 86.0823C123.427 80.6825 128.375 77.5468 133.678 74.5207C134.772 74.3378 135.647 74.2844 137 73.9807C138.703 80.6769 144.67 86.1554 151.69 84.4455C152.401 91.8955 151.056 97.2333 142.237 104.993ZM139.603 73.2748C142.253 72.9795 142.331 72.9879 145.339 72.597C144.378 75.1056 146.673 78.8151 151.318 78.8151C156.671 78.8151 161.201 74.5375 157.376 70.6846C160.404 70.108 163.421 69.4471 166.418 68.6822C167.638 68.3559 169.027 68.4037 170.238 68.0409C157.512 87.7753 141.806 83.3346 139.603 73.2748ZM182.003 56.0659C181.872 56.2459 180.986 57.4861 176.124 64.2639C175.811 64.3764 175.508 64.4861 175.197 64.5902C175.308 64.1374 175.383 63.6846 175.438 63.229C175.836 62.1153 176.038 60.9003 175.994 59.497C176.013 59.3507 176.016 59.2073 176.025 59.0667C176.833 58.8276 177.738 58.5548 178.808 58.223C159.801 61.2294 130.622 62.5034 111.585 62.8634C89.1751 63.1868 87.739 62.1912 69.4018 62.5596C78.494 63.8871 87.6472 64.5114 96.8033 64.953C103.67 65.3186 110.557 65.3551 117.421 65.3833C124.23 65.3973 130.422 65.1611 137.256 64.8152C136.75 66.6798 136.472 68.6034 136.531 70.5411C130.825 70.9489 125.108 71.2583 119.382 71.4242C111.565 71.6802 103.734 71.7842 95.9117 71.6689C79.1608 71.562 57.3818 70.4343 40.6558 67.6135C39.0641 65.6026 37.45 63.6058 35.7888 61.6484C36.8778 63.5721 38.0028 65.4704 39.1474 67.3604C38.3251 67.2141 37.4222 67.1044 34.1998 66.4098C32.0775 63.0068 29.969 59.6038 27.8689 56.2065C35.3471 57.3118 42.8476 58.1133 50.3536 58.7461C102.695 62.9252 156.437 59.8626 182.789 54.9747C182.247 55.7284 182.069 55.9759 182.019 56.049L182.003 56.0659ZM3.92594 45.812C3.57314 45.4604 3.687 45.5139 3.61477 45.4211C6.07602 37.867 81.6303 30.0993 152.54 35.7887C160.412 36.4496 168.269 37.2933 176.047 38.4802L169.719 46.6163C163.413 42.2093 156.693 43.084 150.273 47.2575C148.929 47.1001 147.581 46.9426 146.231 46.8076C121.658 44.2905 92.1837 44.133 67.4351 46.0735C55.79 46.9735 39.8529 48.8184 28.6245 52.1173C40.1918 49.6987 55.6067 48.5878 67.5879 47.9663C95.8145 46.6388 122.08 47.0072 146.026 48.7031C146.698 48.7537 147.367 48.8128 148.037 48.8662C145.784 50.6577 143.737 52.8092 142.009 55.1715C115.154 56.6509 79.3135 56.6087 50.6758 54.491C3.67869 51.0852 4.5593 45.272 3.92594 45.812ZM202.601 0.147579C200.487 0.617245 198.77 2.31591 198.242 4.44206C197.826 6.14636 198.151 7.76066 198.942 9.05716L178.422 35.4315C171.33 34.405 164.229 33.5585 152.773 32.7204C104.854 29.1909 -12.7861 31.5111 1.13687 48.1856C2.1786 49.3949 51.5925 108.846 74.9299 144.892C91.1003 169.027 93.6338 195.244 93.5393 222.128C93.5088 242.45 94.031 284.025 85.5472 298.784C60.4041 300.688 35.3416 308.234 40.2363 323.525L40.4863 324.141C54.8316 348.06 143.334 347.832 161.207 327.892C162.129 326.967 164.816 323.921 164.599 316.685C164.221 303.976 123.28 299.012 115.843 298.568C113.282 294.02 111.94 288.235 111.01 282.897C108.21 266.361 108.218 240.028 108.26 222.128C108.298 169.387 119.113 154.083 150.695 112.524C167.116 91.0658 184.147 70.0237 201.412 49.2459L201.818 48.7087C204.079 46.2732 203.707 44.6477 202.109 42.8028C198.776 38.9498 187.181 36.8743 181.8 35.9715L201.384 11.2789C202.632 11.8892 204.121 12.0833 205.673 11.6052C207.668 10.9977 209.226 9.29059 209.654 7.22631C210.554 2.94026 206.843 -0.797376 202.601 0.147579Z" fill="#FFF8E5"/>
<path d="M127.383 109.265C138.206 110.536 148.584 101.1 148.859 90.4246C145.465 100.85 138.022 107.363 127.383 109.265Z" fill="#FFF8E5"/>
<path d="M143.148 97.2558C140.009 100.006 141.286 100.237 133.703 104.385C134.772 104.543 142.57 101.337 143.148 97.2558Z" fill="#FFF8E5"/>
<path d="M95.3533 163.811C94.5783 163.543 93.8032 163.234 93.0421 162.88C92.4587 162.596 91.8615 162.283 91.2753 161.946C90.7392 161.645 90.2197 161.319 89.6891 160.962C90.2085 161.982 90.9142 162.905 91.742 163.718C92.4837 164.44 93.3309 165.079 94.2365 165.608C94.3143 165.664 94.4061 165.717 94.4866 165.762C96.5062 166.904 98.8481 167.545 101.209 167.554C103.584 167.571 105.929 166.952 107.96 165.827C109.987 164.705 111.74 163.079 112.796 161.06C110.918 162.283 109.051 163.226 107.112 163.856C105.171 164.494 103.193 164.82 101.229 164.812C99.2619 164.806 97.2729 164.455 95.3533 163.811Z" fill="#FFF8E5"/>
</svg>
