<?xml version="1.0" encoding="utf-8"?>
<svg version="1.0" id="Layer_1" xmlns="http://www.w3.org/2000/svg" xmlns:xlink="http://www.w3.org/1999/xlink"
	 x="0px" y="0px"
	 viewBox="50 190 700 120"
	 style="enable-background:new 0 0 803 515.4;" xml:space="preserve">
<style type="text/css">
    .st0{fill:url(#Fill-40_00000152960247602237264120000000105758923020716965_);}
</style>
	<polygon id="Fill-1" points="204.3,250.7 190.1,250.7 190.1,239.3 230.5,239.3 230.5,250.7 216.3,250.7 216.3,298.7 204.3,298.7 "/>
	<path id="Fill-2" d="M251.8,273.2c0-5.9-1.8-9.2-6.2-9.2s-6.6,3.5-7,9.2H251.8z M226.7,276.6c0-13.5,6.9-22.1,18.6-22.1
    c12.1,0,18.7,9.6,17.2,26.5h-23.7c1,6.1,4.7,8.5,10.7,8.5c3.6,0.1,7.1-0.6,10.4-1.8v8.7c-3.8,1.6-7.9,2.3-12,2.2
    C234.2,298.6,226.7,290.3,226.7,276.6z"/>
	<g>
    <polygon id="Fill-4" points="268.3,297.2 280.1,297.2 280.1,233.6 268.3,233.6   "/>
</g>
	<g>
    <path id="Fill-6" d="M310.4,273c0-5.9-1.8-9.2-6.2-9.2s-6.6,3.5-7,9.2H310.4z M285.3,276.3c0-13.5,6.9-22.1,18.7-22.1
       c12,0,18.7,9.6,17.2,26.5h-23.7c1,6.1,4.7,8.5,10.7,8.5c3.5,0.1,7.1-0.6,10.4-1.8v8.7c-3.8,1.6-7.9,2.3-12,2.2
       C292.9,298.4,285.3,290,285.3,276.3L285.3,276.3z"/>
</g>
	<g>
    <path id="Fill-7" d="M338.3,283.9c1.4,2.6,3.6,4.3,6.4,4.3c5,0,7-4.3,7-11.9s-1.9-11.9-7-11.9c-2.8,0-5,1.7-6.4,4.3V283.9z
        M348.2,298.4c-3.8,0.1-7.4-1.5-9.9-4.3v22.3h-11.8v-61.1h10.6v4.3c2.5-3.5,6.5-5.5,10.8-5.4c11.4,0,15.5,10.3,15.5,22.1
       C363.4,289.2,358.7,298.4,348.2,298.4L348.2,298.4z"/>
</g>
	<g>
    <path id="Fill-8" d="M392,273c0-5.9-1.8-9.2-6.2-9.2s-6.6,3.5-7,9.2H392z M367,276.3c0-13.5,6.9-22.1,18.7-22.1
       c12,0,18.6,9.6,17.2,26.5h-23.7c1,6.1,4.7,8.5,10.7,8.5c3.5,0.1,7.1-0.6,10.4-1.8v8.7c-3.8,1.6-7.9,2.3-12,2.2
       C374.5,298.4,367,290,367,276.3z"/>
</g>
	<g>
    <path id="Fill-9" d="M407.6,255.4h10.6v6.4c2.5-5.3,7.3-7.8,13.6-7.2v11.9c-5.6-0.7-10.1,1.3-12.4,7.2v23.7h-11.8V255.4z"/>
</g>
	<g>
    <path id="Fill-10" d="M441.6,265.5h-5.5v-10.1h5.5v-5.5c0-10.9,7-14.8,14.5-14.8c2.6-0.1,5.2,0.4,7.6,1.4v9.6
       c-1.5-0.6-3.1-0.9-4.8-0.9c-3.3,0-5.6,1.6-5.6,5.1v5.1h8.5v10.1h-8.4v31.8h-11.8V265.5z"/>
</g>
	<g>
    <path id="Fill-11" d="M475.3,276.3c0,7.7,2,11.9,7.1,11.9s7-4.2,7-11.9s-2-12-7-12S475.3,268.6,475.3,276.3 M501.4,276.3
       c0,13.8-6.8,22.1-18.9,22.1s-19-8.3-19-22.1s6.8-22.1,19-22.1S501.4,262.4,501.4,276.3"/>
</g>
	<g>
    <path id="Fill-12" d="M505.6,255.4h10.6v6.4c2.5-5.3,7.3-7.8,13.6-7.2v11.9c-5.6-0.7-10.1,1.3-12.4,7.2v23.7h-11.8V255.4z"/>
</g>
	<g>
    <path id="Fill-13" d="M589.5,267.7v29.6h-11.7v-27.2c0-3.4-1.6-5.1-4.4-5.1c-2.5,0-4.4,1.4-5.9,3.8v28.4H556v-27.1
       c0-3.4-1.7-5.1-4.4-5.1c-2.4,0-4.4,1.4-5.9,3.9v28.3h-11.6v-41.9h10.5v3.9c2.5-3.3,6.5-5.2,10.6-5.1c4.6,0,8,1.9,10,5.1
       c2.8-3.4,7-5.2,11.4-5.1C585.3,254.2,589.4,260.2,589.5,267.7"/>
</g>
	<g>
    <path id="Fill-14" d="M617.3,288v-8c-1.4-0.3-2.8-0.5-4.2-0.5c-4.3,0-7.2,1.4-7.2,5.6c0,3.8,2.3,5.4,5.1,5.4
       C613.4,290.5,615.6,289.7,617.3,288 M633,288.9v8.2c-1.8,0.5-3.7,0.8-5.6,0.8c-3.3,0-6.2-1-8-3.2c-3.2,2.5-7.2,3.9-11.3,3.8
       c-7.2,0-13.5-4.2-13.5-13c0-9,6.6-13.4,16-13.4c2.3,0,4.6,0.3,6.8,0.8v-2.3c0-3.4-1.6-6.4-7.4-6.4c-4.4,0-8.7,0.9-12.8,2.6v-10
       c4.5-1.6,9.2-2.4,13.9-2.4c11.7,0,17.8,5.1,17.8,17.1v14.9c0,2.1,1.1,2.8,2.7,2.8C632.1,289.1,632.5,289,633,288.9"/>
</g>
	<g>
    <path id="Fill-15" d="M637.4,255.4h10.5v3.9c2.8-3.4,7-5.2,11.4-5.1c6.7,0,12.8,4.6,12.8,13.3v29.7h-11.8v-27.1
       c0-3.6-1.8-5.1-4.8-5.1c-2.7,0.1-5.2,1.7-6.3,4.2v28h-11.8V255.4z"/>
</g>
	<g>
    <path id="Fill-16" d="M677,276.7c0-14.4,8.5-22.4,20.1-22.4c3.2-0.1,6.4,0.5,9.2,1.9v9.9c-2.3-1.2-4.8-1.8-7.4-1.7
       c-6.2,0-10,4.5-10,12s3.4,11.9,9.5,11.9c2.9,0,5.7-0.6,8.4-1.7v10.1c-3.2,1.3-6.7,2-10.2,1.8C685.2,298.3,677.1,290.6,677,276.7"/>
</g>
	<g>
    <path id="Fill-17" d="M735,273c0-5.9-1.8-9.2-6.2-9.2s-6.6,3.5-7,9.2H735z M709.9,276.3c0-13.5,6.9-22.1,18.7-22.1
       c12,0,18.7,9.6,17.2,26.5h-23.7c1,6.1,4.7,8.5,10.7,8.5c3.5,0.1,7.1-0.6,10.4-1.8v8.7c-3.8,1.6-7.9,2.3-12,2.2
       C717.5,298.4,709.9,290,709.9,276.3z"/>
</g>
	<g>
       <linearGradient id="Fill-40_00000037692394093397128100000016663682423089223596_" gradientUnits="userSpaceOnUse" x1="103.0934" y1="-206.5484" x2="104.5134" y2="-206.5484" gradientTransform="matrix(47.04 0 0 49.41 -4747.6201 10463.2607)">
       <stop  offset="0" style="stop-color:#780096"/>
		   <stop  offset="1" style="stop-color:#FF0082"/>
    </linearGradient>
		<path id="Fill-40" style="fill:url(#Fill-40_00000037692394093397128100000016663682423089223596_);" d="M129.4,199H61.1
       c-2.3,0-4.1,1.8-4.1,4.1v20.2c-0.2,1.3,0.3,2.5,1.1,3.5l23.6,23.4c0.2,0.2,0.5,0.3,0.7,0.1c0.1-0.1,0.2-0.2,0.2-0.4v-23.9
       c0-0.5-0.4-0.9-0.9-0.9H63.1c-1.2,0-2.2-1-2.2-2.2V205c0-1.2,1-2.2,2.2-2.2c0,0,0,0,0,0h62.5c1.2,0,2.2,1,2.2,2.2c0,0,0,0,0,0v17.8
       c0,1.2-1,2.2-2.2,2.2h-18.7c-0.5,0-0.9,0.4-0.9,0.9v69.2c0,1.2-1,2.2-2.2,2.2c0,0,0,0,0,0H85.3c-0.3,0-0.6,0.2-0.6,0.6
       c0,0.1,0,0.3,0.1,0.4l16.4,16.2c1.1,1.2,2.7,2,4.4,2h17.8c1.7,0,3-1.3,3.1-2.9c0,0,0,0,0-0.1v-41.2c0-0.5,0.4-0.9,0.9-0.9
       c0,0,0,0,0,0h2c20,0,39.4-12.1,39.4-36.3C168.8,213.5,153.8,199,129.4,199"/>
</g>
</svg>